<svg width="1672" height="1043" viewBox="0 0 1672 1043" fill="none" xmlns="http://www.w3.org/2000/svg">
<rect width="1672" height="1043" fill="white"/>
<path d="M1486.5 270.964C1509 122.571 1323 35.8072 1323 0H1672V450C1602.67 439.786 1468.5 389.679 1486.5 270.964Z" fill="#BD0707"/>
<path d="M185.5 826.831C163 945.216 349 1014.43 349 1043H0V684C69.3333 692.149 203.5 732.123 185.5 826.831Z" fill="#BD0707"/>
<path d="M825 774C831.075 774 836 768.851 836 762.5C836 756.149 831.075 751 825 751C818.925 751 814 756.149 814 762.5C814 768.851 818.925 774 825 774Z" fill="#BD0707"/>
<path d="M836.5 820C842.299 820 847 814.851 847 808.5C847 802.149 842.299 797 836.5 797C830.701 797 826 802.149 826 808.5C826 814.851 830.701 820 836.5 820Z" fill="#BD0707"/>
<path d="M791.5 820C797.851 820 803 814.851 803 808.5C803 802.149 797.851 797 791.5 797C785.149 797 780 802.149 780 808.5C780 814.851 785.149 820 791.5 820Z" fill="#BD0707"/>
<path d="M803 251C765.895 258.54 732.313 277.875 707.391 306.048C682.469 334.221 667.58 369.679 665 407H803V251Z" fill="#BD0707"/>
<path d="M870.5 774C876.851 774 882 768.851 882 762.5C882 756.149 876.851 751 870.5 751C864.149 751 859 756.149 859 762.5C859 768.851 864.149 774 870.5 774Z" fill="#BD0707"/>
<path d="M927.5 592C933.851 592 939 586.851 939 580.5C939 574.149 933.851 569 927.5 569C921.149 569 916 574.149 916 580.5C916 586.851 921.149 592 927.5 592Z" fill="#BD0707"/>
<path d="M847.5 649C853.851 649 859 643.851 859 637.5C859 631.149 853.851 626 847.5 626C841.149 626 836 631.149 836 637.5C836 643.851 841.149 649 847.5 649Z" fill="#BD0707"/>
<path d="M893.5 730C899.851 730 905 724.851 905 718.5C905 712.149 899.851 707 893.5 707C887.149 707 882 712.149 882 718.5C882 724.851 887.149 730 893.5 730Z" fill="#BD0707"/>
<path d="M768.5 707C774.851 707 780 701.851 780 695.5C780 689.149 774.851 684 768.5 684C762.149 684 757 689.149 757 695.5C757 701.851 762.149 707 768.5 707Z" fill="#BD0707"/>
<path d="M870 251V407H1008C1005.42 369.679 990.531 334.221 965.609 306.048C940.687 277.875 907.105 258.54 870 251Z" fill="#BD0707"/>
<path d="M881.5 820C887.851 820 893 814.851 893 808.5C893 802.149 887.851 797 881.5 797C875.149 797 870 802.149 870 808.5C870 814.851 875.149 820 881.5 820Z" fill="#BD0707"/>
<path d="M731.625 832H765.044C760.61 827.048 757.702 820.915 756.674 814.343C755.645 807.771 756.539 801.041 759.247 794.967C761.956 788.893 766.363 783.735 771.935 780.117C777.508 776.499 784.007 774.576 790.648 774.581C791.317 774.581 791.98 774.605 792.641 774.642C790.073 767.429 789.979 759.565 792.373 752.292C794.767 745.02 799.513 738.754 805.86 734.487C812.207 730.219 819.793 728.193 827.418 728.729C835.043 729.265 842.272 732.333 847.962 737.446C851.943 733.868 856.702 731.27 861.861 729.86C859.291 723.373 858.749 716.257 860.305 709.454C861.862 702.652 865.444 696.483 870.577 691.765C875.711 687.047 882.153 684.002 889.052 683.034C895.951 682.065 902.981 683.218 909.211 686.341C915.441 689.464 920.577 694.408 923.941 700.52C927.304 706.632 928.735 713.623 928.044 720.567C927.353 727.512 924.574 734.083 920.073 739.41C915.573 744.737 909.563 748.569 902.841 750.398C904.738 755.169 905.543 760.305 905.196 765.429C904.849 770.552 903.358 775.533 900.835 780.002C905.042 782.683 908.615 786.25 911.307 790.454C913.999 794.658 915.744 799.4 916.422 804.348C917.099 809.297 916.693 814.334 915.231 819.109C913.768 823.885 911.286 828.283 907.955 832H941.373L999 476H674L731.625 832ZM928.202 544.903C935.004 544.903 941.652 546.924 947.308 550.709C952.963 554.495 957.371 559.876 959.973 566.171C962.576 572.466 963.257 579.393 961.93 586.076C960.603 592.759 957.328 598.898 952.519 603.716C947.709 608.534 941.582 611.815 934.911 613.144C928.24 614.474 921.326 613.792 915.042 611.184C908.759 608.576 903.388 604.161 899.609 598.495C895.831 592.83 893.814 586.169 893.814 579.355C893.824 570.221 897.451 561.464 903.898 555.006C910.344 548.547 919.085 544.914 928.202 544.903V544.903ZM847.962 602.323C854.764 602.323 861.412 604.343 867.067 608.129C872.723 611.914 877.13 617.295 879.733 623.59C882.336 629.885 883.017 636.812 881.69 643.495C880.363 650.178 877.088 656.317 872.279 661.135C867.469 665.953 861.342 669.235 854.671 670.564C848 671.893 841.086 671.211 834.802 668.603C828.518 665.996 823.148 661.58 819.369 655.914C815.59 650.249 813.574 643.588 813.574 636.774C813.584 627.64 817.211 618.884 823.657 612.425C830.104 605.966 838.845 602.333 847.962 602.323V602.323ZM767.722 659.742C774.523 659.742 781.172 661.762 786.827 665.548C792.482 669.334 796.89 674.714 799.493 681.01C802.096 687.305 802.777 694.232 801.45 700.915C800.123 707.598 796.848 713.736 792.038 718.554C787.229 723.373 781.102 726.654 774.431 727.983C767.76 729.312 760.846 728.63 754.562 726.023C748.278 723.415 742.908 718.999 739.129 713.334C735.35 707.668 733.333 701.007 733.333 694.194C733.344 685.06 736.97 676.303 743.417 669.844C749.864 663.386 758.605 659.753 767.722 659.742V659.742Z" fill="#BD0707"/>
<path d="M653 430H1020V453H653V430Z" fill="#BD0707"/>
<path d="M826 190H847V407H826V190Z" fill="#BD0707"/>
</svg>
