<svg width="1672" height="1043" viewBox="0 0 1672 1043" fill="none" xmlns="http://www.w3.org/2000/svg">
<rect width="1672" height="1043" fill="white"/>
<path d="M711.927 784H959.526L967.112 709.746H704.34L711.927 784Z" fill="#BD0707"/>
<path d="M679.759 469.155H991.694L999.281 394.9H672.173L679.759 469.155Z" fill="#BD0707"/>
<path d="M701.192 678.925H970.262L988.545 499.975H682.908L701.192 678.925Z" fill="#BD0707"/>
<path d="M985.273 298.497L974.759 258H696.694L686.18 298.497H645V364.079H1026.45V298.497H985.273Z" fill="#BD0707"/>
<path d="M1486.5 270.964C1509 122.571 1323 35.8072 1323 0H1672V450C1602.67 439.786 1468.5 389.679 1486.5 270.964Z" fill="#BD0707"/>
<path d="M185.5 826.831C163 945.216 349 1014.43 349 1043H0V684C69.3333 692.149 203.5 732.123 185.5 826.831Z" fill="#BD0707"/>
</svg>
