<svg width="74" height="74" viewBox="0 0 74 74" fill="none" xmlns="http://www.w3.org/2000/svg">
<path d="M23.125 0H0V23.125H23.125V0ZM18.5 18.5H4.625V4.625H18.5V18.5Z" fill="black"/>
<path d="M13.875 9.25H9.25V13.875H13.875V9.25Z" fill="black"/>
<path d="M50.875 0V23.125H74V0H50.875ZM69.375 18.5H55.5V4.625H69.375V18.5Z" fill="black"/>
<path d="M64.75 9.25H60.125V13.875H64.75V9.25Z" fill="black"/>
<path d="M0 74H23.125V50.875H0V74ZM4.625 55.5H18.5V69.375H4.625V55.5Z" fill="black"/>
<path d="M13.875 60.125H9.25V64.75H13.875V60.125Z" fill="black"/>
<path d="M46.25 0H37V4.625H46.25V0Z" fill="black"/>
<path d="M37 18.5H41.625V13.875H46.25V9.25H32.375V4.625H27.75V9.25V11.5625V13.875H37V18.5Z" fill="black"/>
<path d="M32.375 18.5H27.75V23.125H32.375V18.5Z" fill="black"/>
<path d="M46.25 23.125H41.625V27.75H27.75V32.375H46.25V23.125Z" fill="black"/>
<path d="M4.625 41.625H9.25V37H4.625V27.75H0V46.25H4.625V41.625Z" fill="black"/>
<path d="M13.875 27.75H9.25V32.375H13.875V27.75Z" fill="black"/>
<path d="M27.75 46.25H37V41.625H32.375V37H23.125V27.75H18.5V37H13.875V46.25H18.5V41.625H20.8125H23.125H27.75V46.25Z" fill="black"/>
<path d="M46.25 37H41.625V46.25H46.25V37Z" fill="black"/>
<path d="M41.625 50.875H27.75V55.5H37V69.375H27.75V74H41.625V69.375H50.875V64.75H41.625V50.875Z" fill="black"/>
<path d="M32.375 60.125H27.75V64.75H32.375V60.125Z" fill="black"/>
<path d="M50.875 50.875H46.25V60.125H50.875V50.875Z" fill="black"/>
<path d="M69.375 60.125H55.5V74H60.125V64.75H69.375V60.125Z" fill="black"/>
<path d="M74 69.375H64.75V74H74V69.375Z" fill="black"/>
<path d="M74 50.875H69.375V55.5H74V50.875Z" fill="black"/>
<path d="M55.5 55.5H60.125V41.625H50.875V46.25H55.5V55.5Z" fill="black"/>
<path d="M64.75 32.375H60.125V27.75H55.5V32.375H50.875V37H69.375V32.375H74V27.75H64.75V32.375Z" fill="black"/>
<path d="M74 41.625H64.75V46.25H74V41.625Z" fill="black"/>
</svg>
