<svg width="59" height="59" viewBox="0 0 59 59" fill="none" xmlns="http://www.w3.org/2000/svg">
<path d="M29.5 0.237183C33.4288 0.237183 37.3174 1.02832 40.9339 2.56343C44.5504 4.09854 47.8207 6.34619 50.5499 9.17234C53.2791 11.9985 55.4112 15.3453 56.8192 19.0131C58.2271 22.681 58.8821 26.5948 58.745 30.5213L48.5092 30.1638C48.5984 27.6116 48.1726 25.0677 47.2575 22.6835C46.3423 20.2994 44.9564 18.124 43.1824 16.287C41.4085 14.45 39.2828 12.9891 36.932 11.9912C34.5813 10.9934 32.0537 10.4792 29.5 10.4792V0.237183Z" fill="#008FFB" fill-opacity="0.81"/>
<path fill-rule="evenodd" clip-rule="evenodd" d="M29.2627 0H29.4999C33.4605 0 37.3806 0.797554 41.0264 2.34511C44.6723 3.89266 47.9691 6.15852 50.7204 9.00758C53.4717 11.8566 55.6211 15.2306 57.0405 18.9281C58.4599 22.6257 59.1201 26.5713 58.9819 30.5295L58.9736 30.7666L48.2638 30.3926L48.2721 30.1555C48.3601 27.6352 47.9397 25.1229 47.0359 22.7685C46.1322 20.4142 44.7636 18.2659 43.0117 16.4518C41.2599 14.6377 39.1606 13.1949 36.8392 12.2096C34.5178 11.2242 32.0218 10.7164 29.4999 10.7164H29.2627V0ZM29.7371 0.475341V10.2434C32.2418 10.2743 34.7174 10.7935 37.0246 11.7729C39.4046 12.7832 41.5568 14.2624 43.3529 16.1223C45.149 17.9822 46.5522 20.1847 47.4788 22.5985C48.377 24.9385 48.8096 27.4307 48.753 29.935L58.5151 30.2759C58.6172 26.4609 57.9658 22.6625 56.5976 19.0981C55.2011 15.46 53.0862 12.1403 50.3792 9.3371C47.6721 6.53386 44.4283 4.30444 40.8411 2.78177C37.3267 1.29 33.5533 0.506524 29.7371 0.475341Z" fill="white"/>
<path d="M45.5287 12.4925H43.9819V12.2769L44.7991 11.3689C44.9202 11.2316 45.0034 11.1203 45.0488 11.0349C45.0953 10.9484 45.1185 10.8592 45.1185 10.7674C45.1185 10.6441 45.0812 10.5431 45.0066 10.4642C44.9321 10.3852 44.8326 10.3458 44.7083 10.3458C44.5591 10.3458 44.4429 10.3885 44.3597 10.4739C44.2776 10.5582 44.2365 10.676 44.2365 10.8273H43.9365C43.9365 10.6101 44.0062 10.4344 44.1457 10.3004C44.2862 10.1664 44.4737 10.0993 44.7083 10.0993C44.9277 10.0993 45.1012 10.1572 45.2288 10.2728C45.3563 10.3874 45.4201 10.5404 45.4201 10.7317C45.4201 10.9641 45.272 11.2408 44.9758 11.5618L44.3435 12.2477H45.5287V12.4925Z" fill="white"/>
<path d="M47.0236 10.1301V10.3847H46.9685C46.735 10.389 46.5491 10.4582 46.4108 10.5922C46.2724 10.7263 46.1924 10.9149 46.1708 11.1581C46.2951 11.0154 46.4648 10.9441 46.6799 10.9441C46.8853 10.9441 47.049 11.0165 47.1712 11.1613C47.2944 11.3062 47.356 11.4932 47.356 11.7223C47.356 11.9656 47.2896 12.1601 47.1566 12.306C47.0247 12.452 46.8475 12.5249 46.6248 12.5249C46.3989 12.5249 46.2157 12.4385 46.0751 12.2655C45.9346 12.0915 45.8644 11.8677 45.8644 11.5943V11.4791C45.8644 11.0446 45.9568 10.7128 46.1416 10.4836C46.3275 10.2534 46.6037 10.1355 46.9701 10.1301H47.0236ZM46.6296 11.1938C46.527 11.1938 46.4324 11.2246 46.3459 11.2862C46.2594 11.3478 46.1994 11.4251 46.1659 11.5181V11.6283C46.1659 11.8229 46.2097 11.9796 46.2973 12.0985C46.3848 12.2174 46.494 12.2769 46.6248 12.2769C46.7599 12.2769 46.8658 12.2271 46.9426 12.1277C47.0204 12.0282 47.0593 11.898 47.0593 11.7369C47.0593 11.5748 47.0199 11.444 46.941 11.3446C46.8631 11.244 46.7594 11.1938 46.6296 11.1938Z" fill="white"/>
<path d="M47.6852 10.5858C47.6852 10.4442 47.73 10.3274 47.8197 10.2355C47.9105 10.1437 48.0267 10.0977 48.1683 10.0977C48.3121 10.0977 48.4283 10.1442 48.5169 10.2372C48.6067 10.329 48.6515 10.4485 48.6515 10.5955V10.7106C48.6515 10.8533 48.6061 10.97 48.5153 11.0608C48.4256 11.1505 48.311 11.1954 48.1716 11.1954C48.0311 11.1954 47.9149 11.1505 47.823 11.0608C47.7311 10.97 47.6852 10.8495 47.6852 10.6993V10.5858ZM47.9089 10.7106C47.9089 10.7949 47.9327 10.8646 47.9803 10.9198C48.0278 10.9738 48.0916 11.0008 48.1716 11.0008C48.2483 11.0008 48.3099 10.9743 48.3564 10.9214C48.404 10.8684 48.4278 10.796 48.4278 10.7041V10.5858C48.4278 10.5014 48.4045 10.4317 48.358 10.3766C48.3116 10.3215 48.2483 10.2939 48.1683 10.2939C48.0884 10.2939 48.0251 10.3215 47.9786 10.3766C47.9322 10.4317 47.9089 10.5036 47.9089 10.5922V10.7106ZM48.8347 11.9137C48.8347 11.7721 48.8796 11.6559 48.9693 11.5651C49.0601 11.4732 49.1763 11.4273 49.3179 11.4273C49.4595 11.4273 49.5757 11.4727 49.6665 11.5635C49.7573 11.6542 49.8027 11.7748 49.8027 11.925V12.0401C49.8027 12.1817 49.7573 12.2985 49.6665 12.3904C49.5768 12.4812 49.4617 12.5266 49.3212 12.5266C49.1806 12.5266 49.0644 12.4817 48.9726 12.392C48.8807 12.3012 48.8347 12.1807 48.8347 12.0304V11.9137ZM49.0585 12.0401C49.0585 12.1255 49.0823 12.1958 49.1298 12.2509C49.1774 12.305 49.2412 12.332 49.3212 12.332C49.399 12.332 49.4611 12.3055 49.5076 12.2525C49.5541 12.1985 49.5773 12.1255 49.5773 12.0337V11.9137C49.5773 11.8283 49.5536 11.7586 49.506 11.7045C49.4595 11.6505 49.3968 11.6234 49.3179 11.6234C49.2412 11.6234 49.1785 11.6505 49.1298 11.7045C49.0823 11.7575 49.0585 11.8294 49.0585 11.9202V12.0401ZM48.2397 12.3142L48.0694 12.2071L49.2222 10.362L49.3925 10.469L48.2397 12.3142Z" fill="white"/>
<path d="M58.7449 30.5212C58.5732 35.4386 57.1643 40.2332 54.6485 44.4618C52.1328 48.6904 48.5914 52.2164 44.3519 54.7136C40.1124 57.2109 35.3116 58.5988 30.3935 58.7491C25.4755 58.8994 20.5989 57.8071 16.2148 55.5733L20.8646 46.4476C23.7143 47.8996 26.884 48.6096 30.0808 48.5119C33.2775 48.4142 36.398 47.5121 39.1537 45.8888C41.9094 44.2656 44.2113 41.9737 45.8465 39.2252C47.4817 36.4766 48.3975 33.36 48.5091 30.1638L58.7449 30.5212Z" fill="#00E396" fill-opacity="0.81"/>
<path fill-rule="evenodd" clip-rule="evenodd" d="M48.28 29.9185L58.9899 30.2925L58.9816 30.5295C58.8085 35.4867 57.3882 40.3202 54.852 44.5831C52.3159 48.846 48.7458 52.4005 44.4719 54.918C40.1981 57.4355 35.3584 58.8347 30.4004 58.9862C25.4425 59.1377 20.5264 58.0365 16.1068 55.7846L15.8955 55.677L20.7606 46.1286L20.972 46.2363C23.7861 47.6702 26.9163 48.3713 30.0732 48.2748C33.2301 48.1784 36.3117 47.2875 39.033 45.6845C41.7543 44.0815 44.0275 41.8182 45.6423 39.1039C47.2572 36.3896 48.1615 33.3119 48.2718 30.1555L48.28 29.9185ZM48.7361 30.409C48.5871 33.5621 47.6652 36.6316 46.05 39.3464C44.3944 42.1293 42.0638 44.4498 39.2737 46.0932C36.4837 47.7367 33.3243 48.6501 30.0877 48.749C26.9301 48.8455 23.7986 48.1637 20.9686 46.7654L16.534 55.4688C20.8275 57.6125 25.5868 58.6587 30.386 58.512C35.2642 58.363 40.026 56.9863 44.2312 54.5093C48.4363 52.0323 51.949 48.5349 54.4444 44.3406C56.8993 40.2142 58.2916 35.5444 58.4983 30.7499L48.7361 30.409Z" fill="white"/>
<path d="M39.3041 48.7377H39.5295C39.6711 48.7356 39.7825 48.6983 39.8635 48.6259C39.9446 48.5534 39.9851 48.4556 39.9851 48.3324C39.9851 48.0557 39.8473 47.9173 39.5717 47.9173C39.442 47.9173 39.3382 47.9546 39.2604 48.0292C39.1836 48.1027 39.1453 48.2005 39.1453 48.3227H38.8453C38.8453 48.1357 38.9134 47.9806 39.0496 47.8573C39.1869 47.733 39.3609 47.6709 39.5717 47.6709C39.7943 47.6709 39.9689 47.7298 40.0954 47.8476C40.2219 47.9654 40.2851 48.1292 40.2851 48.3389C40.2851 48.4416 40.2516 48.541 40.1846 48.6372C40.1186 48.7334 40.0284 48.8053 39.9138 48.8529C40.0435 48.8939 40.1435 48.962 40.2137 49.0572C40.2851 49.1523 40.3208 49.2685 40.3208 49.4058C40.3208 49.6176 40.2516 49.7857 40.1132 49.91C39.9749 50.0343 39.7949 50.0965 39.5733 50.0965C39.3517 50.0965 39.1712 50.0365 39.0318 49.9165C38.8934 49.7965 38.8242 49.6382 38.8242 49.4414H39.1258C39.1258 49.5657 39.1663 49.6652 39.2474 49.7398C39.3285 49.8143 39.4371 49.8516 39.5733 49.8516C39.7181 49.8516 39.8289 49.8138 39.9057 49.7381C39.9824 49.6625 40.0208 49.5538 40.0208 49.4122C40.0208 49.275 39.9786 49.1696 39.8943 49.0961C39.81 49.0226 39.6884 48.9847 39.5295 48.9826H39.3041V48.7377Z" fill="white"/>
<path d="M42.2794 50.064H40.7326V49.8484L41.5498 48.9404C41.6708 48.8031 41.7541 48.6918 41.7995 48.6064C41.8459 48.5199 41.8692 48.4308 41.8692 48.3389C41.8692 48.2157 41.8319 48.1146 41.7573 48.0357C41.6827 47.9568 41.5833 47.9173 41.459 47.9173C41.3098 47.9173 41.1936 47.96 41.1104 48.0454C41.0282 48.1297 40.9872 48.2475 40.9872 48.3989H40.6872C40.6872 48.1816 40.7569 48.006 40.8964 47.8719C41.0369 47.7379 41.2244 47.6709 41.459 47.6709C41.6784 47.6709 41.8519 47.7287 41.9794 47.8444C42.107 47.9589 42.1708 48.1119 42.1708 48.3032C42.1708 48.5356 42.0227 48.8123 41.7265 49.1334L41.0942 49.8192H42.2794V50.064Z" fill="white"/>
<path d="M42.5712 48.1573C42.5712 48.0157 42.6161 47.8989 42.7058 47.8071C42.7966 47.7152 42.9128 47.6693 43.0544 47.6693C43.1982 47.6693 43.3144 47.7157 43.403 47.8087C43.4927 47.9006 43.5376 48.02 43.5376 48.167V48.2821C43.5376 48.4248 43.4922 48.5416 43.4014 48.6324C43.3117 48.7221 43.1971 48.7669 43.0577 48.7669C42.9171 48.7669 42.8009 48.7221 42.7091 48.6324C42.6172 48.5416 42.5712 48.421 42.5712 48.2708V48.1573ZM42.795 48.2821C42.795 48.3664 42.8188 48.4362 42.8663 48.4913C42.9139 48.5453 42.9777 48.5724 43.0577 48.5724C43.1344 48.5724 43.196 48.5459 43.2425 48.4929C43.2901 48.44 43.3138 48.3675 43.3138 48.2756V48.1573C43.3138 48.073 43.2906 48.0033 43.2441 47.9481C43.1976 47.893 43.1344 47.8654 43.0544 47.8654C42.9744 47.8654 42.9112 47.893 42.8647 47.9481C42.8182 48.0033 42.795 48.0751 42.795 48.1638V48.2821ZM43.7208 49.4852C43.7208 49.3436 43.7657 49.2274 43.8554 49.1366C43.9462 49.0447 44.0624 48.9988 44.204 48.9988C44.3456 48.9988 44.4618 49.0442 44.5526 49.135C44.6434 49.2258 44.6888 49.3463 44.6888 49.4966V49.6117C44.6888 49.7533 44.6434 49.87 44.5526 49.9619C44.4629 50.0527 44.3477 50.0981 44.2072 50.0981C44.0667 50.0981 43.9505 50.0532 43.8586 49.9635C43.7668 49.8727 43.7208 49.7522 43.7208 49.6019V49.4852ZM43.9446 49.6117C43.9446 49.6971 43.9683 49.7673 44.0159 49.8225C44.0635 49.8765 44.1272 49.9035 44.2072 49.9035C44.2851 49.9035 44.3472 49.877 44.3937 49.8241C44.4402 49.77 44.4634 49.6971 44.4634 49.6052V49.4852C44.4634 49.3998 44.4396 49.3301 44.3921 49.276C44.3456 49.222 44.2829 49.195 44.204 49.195C44.1272 49.195 44.0645 49.222 44.0159 49.276C43.9683 49.329 43.9446 49.4009 43.9446 49.4917V49.6117ZM43.1258 49.8857L42.9555 49.7787L44.1083 47.9335L44.2786 48.0405L43.1258 49.8857Z" fill="white"/>
<path d="M16.2151 55.5734C9.61484 52.2104 4.53563 46.4694 2.00207 39.5085C-0.531486 32.5476 -0.33083 24.8849 2.56356 18.0662L11.9914 22.068C10.11 26.5002 9.97958 31.481 11.6264 36.0056C13.2732 40.5301 16.5747 44.2618 20.8648 46.4477L16.2151 55.5734Z" fill="#FEB019" fill-opacity="0.81"/>
<path fill-rule="evenodd" clip-rule="evenodd" d="M2.43779 17.7551L12.3022 21.9423L12.2096 22.1607C10.3517 26.5376 10.2229 31.4562 11.8492 35.9244C13.4754 40.3926 16.7357 44.0777 20.9724 46.2364L21.1837 46.3441L16.3186 55.8924L16.1073 55.7847C9.45354 52.3945 4.33316 46.6069 1.77907 39.5896C-0.775022 32.5723 -0.572739 24.8475 2.34511 17.9735L2.43779 17.7551ZM2.68999 18.3775C-0.0931285 25.0859 -0.261135 32.5972 2.22483 39.4274C4.7108 46.2575 9.66773 51.9036 16.1117 55.2535L20.5464 46.5501C16.3053 44.323 13.0437 40.5933 11.4034 36.0867C9.7631 31.58 9.86428 26.6263 11.6816 22.1942L2.68999 18.3775Z" fill="white"/>
<path d="M5.47599 37.5199H3.92919V37.3042L4.74637 36.3962C4.86743 36.259 4.95066 36.1476 4.99606 36.0622C5.04254 35.9757 5.06578 35.8866 5.06578 35.7947C5.06578 35.6715 5.02849 35.5704 4.95391 35.4915C4.87932 35.4126 4.77988 35.3731 4.65557 35.3731C4.5064 35.3731 4.3902 35.4158 4.30697 35.5012C4.22482 35.5855 4.18375 35.7034 4.18375 35.8547H3.88379C3.88379 35.6374 3.95351 35.4618 4.09295 35.3277C4.23347 35.1937 4.42101 35.1267 4.65557 35.1267C4.875 35.1267 5.04849 35.1845 5.17604 35.3002C5.30358 35.4147 5.36736 35.5677 5.36736 35.759C5.36736 35.9914 5.21927 36.2681 4.9231 36.5892L4.29076 37.275H5.47599V37.5199Z" fill="white"/>
<path d="M7.06009 36.727H7.38761V36.9718H7.06009V37.5199H6.75851V36.9718H5.68353V36.7951L6.74067 35.1591H7.06009V36.727ZM6.02402 36.727H6.75851V35.5693L6.72284 35.6342L6.02402 36.727Z" fill="white"/>
<path d="M7.63244 35.6131C7.63244 35.4715 7.6773 35.3548 7.76701 35.2629C7.85781 35.171 7.97401 35.1251 8.11561 35.1251C8.25938 35.1251 8.37557 35.1715 8.46421 35.2645C8.55393 35.3564 8.59879 35.4758 8.59879 35.6228V35.7379C8.59879 35.8806 8.55339 35.9974 8.46259 36.0882C8.37287 36.1779 8.25829 36.2227 8.11885 36.2227C7.97833 36.2227 7.86213 36.1779 7.77026 36.0882C7.67838 35.9974 7.63244 35.8768 7.63244 35.7266V35.6131ZM7.85619 35.7379C7.85619 35.8223 7.87997 35.892 7.92753 35.9471C7.97509 36.0012 8.03887 36.0282 8.11885 36.0282C8.1956 36.0282 8.25721 36.0017 8.30369 35.9487C8.35125 35.8958 8.37503 35.8233 8.37503 35.7315V35.6131C8.37503 35.5288 8.35179 35.4591 8.30531 35.4039C8.25883 35.3488 8.1956 35.3212 8.11561 35.3212C8.03562 35.3212 7.97239 35.3488 7.92591 35.4039C7.87943 35.4591 7.85619 35.5309 7.85619 35.6196V35.7379ZM8.782 36.941C8.782 36.7994 8.82686 36.6832 8.91658 36.5924C9.00738 36.5005 9.12357 36.4546 9.26518 36.4546C9.40678 36.4546 9.52298 36.5 9.61377 36.5908C9.70457 36.6816 9.74997 36.8021 9.74997 36.9524V37.0675C9.74997 37.2091 9.70457 37.3258 9.61377 37.4177C9.52406 37.5085 9.40894 37.5539 9.26842 37.5539C9.1279 37.5539 9.0117 37.509 8.91982 37.4193C8.82794 37.3285 8.782 37.208 8.782 37.0578V36.941ZM9.00575 37.0675C9.00575 37.1529 9.02953 37.2231 9.0771 37.2783C9.12466 37.3323 9.18843 37.3593 9.26842 37.3593C9.34625 37.3593 9.4084 37.3329 9.45488 37.2799C9.50136 37.2258 9.5246 37.1529 9.5246 37.061V36.941C9.5246 36.8556 9.50082 36.7859 9.45326 36.7319C9.40678 36.6778 9.34408 36.6508 9.26518 36.6508C9.18843 36.6508 9.12574 36.6778 9.0771 36.7319C9.02953 36.7848 9.00575 36.8567 9.00575 36.9475V37.0675ZM8.18695 37.3415L8.01671 37.2345L9.16951 35.3893L9.33976 35.4964L8.18695 37.3415Z" fill="white"/>
<path d="M2.56348 18.0661C4.97808 12.3777 9.13154 7.59965 14.4286 4.41687L19.7036 13.196C16.2605 15.2648 13.5608 18.3705 11.9913 22.068L2.56348 18.0661Z" fill="#FF4560" fill-opacity="0.81"/>
<path fill-rule="evenodd" clip-rule="evenodd" d="M14.5102 4.09143L20.0295 13.2771L19.8262 13.3993C16.4261 15.4423 13.76 18.5093 12.2101 22.1607L12.1174 22.379L2.25293 18.1918L2.34561 17.9735C4.77978 12.2389 8.9669 7.42217 14.3069 4.21359L14.5102 4.09143ZM2.87583 17.9409L11.8674 21.7576C13.4373 18.1822 16.0572 15.1683 19.3793 13.1161L14.3484 4.7432C9.25848 7.85838 5.25232 12.4669 2.87583 17.9409Z" fill="white"/>
<path d="M9.38097 13.4244H9.07939V11.4252L8.47461 11.6474V11.375L9.33395 11.0523H9.38097V13.4244Z" fill="white"/>
<path d="M11.7401 12.4175C11.7401 12.7688 11.6801 13.0299 11.5601 13.2006C11.4401 13.3714 11.2526 13.4568 10.9975 13.4568C10.7456 13.4568 10.5592 13.3736 10.4381 13.2071C10.317 13.0396 10.2544 12.7899 10.25 12.458V12.0576C10.25 11.7106 10.31 11.4528 10.43 11.2842C10.55 11.1155 10.7381 11.0312 10.9942 11.0312C11.2483 11.0312 11.4353 11.1128 11.5552 11.2761C11.6752 11.4382 11.7368 11.689 11.7401 12.0284V12.4175ZM11.4401 12.0073C11.4401 11.7533 11.4045 11.5684 11.3331 11.4528C11.2618 11.336 11.1488 11.2777 10.9942 11.2777C10.8408 11.2777 10.7289 11.3355 10.6586 11.4512C10.5884 11.5668 10.5521 11.7446 10.55 11.9846V12.4645C10.55 12.7196 10.5867 12.9083 10.6602 13.0304C10.7348 13.1515 10.8472 13.212 10.9975 13.212C11.1456 13.212 11.2553 13.1547 11.3266 13.0401C11.3991 12.9255 11.4369 12.745 11.4401 12.4986V12.0073Z" fill="white"/>
<path d="M12.0984 11.5176C12.0984 11.376 12.1433 11.2593 12.233 11.1674C12.3238 11.0755 12.44 11.0296 12.5816 11.0296C12.7253 11.0296 12.8415 11.0761 12.9302 11.169C13.0199 11.2609 13.0648 11.3804 13.0648 11.5274V11.6425C13.0648 11.7852 13.0194 11.9019 12.9286 11.9927C12.8388 12.0824 12.7243 12.1273 12.5848 12.1273C12.4443 12.1273 12.3281 12.0824 12.2362 11.9927C12.1444 11.9019 12.0984 11.7814 12.0984 11.6311V11.5176ZM12.3222 11.6425C12.3222 11.7268 12.3459 11.7965 12.3935 11.8516C12.4411 11.9057 12.5048 11.9327 12.5848 11.9327C12.6616 11.9327 12.7232 11.9062 12.7697 11.8533C12.8172 11.8003 12.841 11.7279 12.841 11.636V11.5176C12.841 11.4333 12.8178 11.3636 12.7713 11.3085C12.7248 11.2534 12.6616 11.2258 12.5816 11.2258C12.5016 11.2258 12.4384 11.2534 12.3919 11.3085C12.3454 11.3636 12.3222 11.4355 12.3222 11.5241V11.6425ZM13.248 12.8456C13.248 12.704 13.2928 12.5878 13.3826 12.497C13.4733 12.4051 13.5895 12.3591 13.7311 12.3591C13.8728 12.3591 13.989 12.4045 14.0797 12.4953C14.1705 12.5861 14.2159 12.7067 14.2159 12.8569V12.972C14.2159 13.1136 14.1705 13.2304 14.0797 13.3222C13.99 13.413 13.8749 13.4584 13.7344 13.4584C13.5939 13.4584 13.4777 13.4136 13.3858 13.3239C13.2939 13.2331 13.248 13.1125 13.248 12.9623V12.8456ZM13.4717 12.972C13.4717 13.0574 13.4955 13.1277 13.5431 13.1828C13.5906 13.2369 13.6544 13.2639 13.7344 13.2639C13.8122 13.2639 13.8744 13.2374 13.9209 13.1844C13.9673 13.1304 13.9906 13.0574 13.9906 12.9655V12.8456C13.9906 12.7602 13.9668 12.6904 13.9192 12.6364C13.8728 12.5824 13.8101 12.5553 13.7311 12.5553C13.6544 12.5553 13.5917 12.5824 13.5431 12.6364C13.4955 12.6894 13.4717 12.7612 13.4717 12.852V12.972ZM12.6529 13.246L12.4827 13.139L13.6355 11.2939L13.8057 11.4009L12.6529 13.246Z" fill="white"/>
<path d="M14.4287 4.41687C18.9803 1.68202 24.1902 0.237183 29.5002 0.237183V10.4792C26.0487 10.4792 22.6622 11.4183 19.7037 13.196L14.4287 4.41687Z" fill="#775DD0" fill-opacity="0.81"/>
<path fill-rule="evenodd" clip-rule="evenodd" d="M14.755 4.49885L19.7859 12.8718C22.6642 11.1902 25.9299 10.2845 29.2633 10.2434V0.475341C24.1575 0.517052 19.1529 1.90494 14.755 4.49885ZM14.3068 4.21356C18.8953 1.45655 24.1474 0 29.5004 0H29.7376V10.7164H29.5004C26.092 10.7164 22.7478 11.6438 19.8262 13.3993L19.6228 13.5214L14.1035 4.33572L14.3068 4.21356Z" fill="white"/>
<path d="M22.2461 4.96135C22.1834 5.03593 22.1083 5.09592 22.0207 5.14132C21.9343 5.18672 21.8391 5.20942 21.7354 5.20942C21.5992 5.20942 21.4803 5.17591 21.3787 5.1089C21.2781 5.04188 21.2003 4.94784 21.1452 4.82677C21.0901 4.70463 21.0625 4.57005 21.0625 4.42305C21.0625 4.26523 21.0922 4.12309 21.1517 3.99662C21.2122 3.87016 21.2976 3.77341 21.4079 3.7064C21.5181 3.63938 21.6467 3.60587 21.7937 3.60587C22.0272 3.60587 22.211 3.69342 22.345 3.86853C22.4801 4.04256 22.5477 4.28037 22.5477 4.58195V4.6695C22.5477 5.12889 22.4569 5.46452 22.2753 5.67638C22.0937 5.88716 21.8197 5.99525 21.4533 6.00066H21.3949V5.74772H21.4581C21.7057 5.7434 21.8959 5.67908 22.0288 5.55478C22.1618 5.42939 22.2342 5.23158 22.2461 4.96135ZM21.784 4.96135C21.8845 4.96135 21.977 4.93054 22.0613 4.86893C22.1467 4.80732 22.2088 4.73111 22.2477 4.64031V4.52033C22.2477 4.3236 22.205 4.16363 22.1196 4.0404C22.0343 3.91718 21.9262 3.85556 21.7954 3.85556C21.6635 3.85556 21.5576 3.90637 21.4776 4.00797C21.3976 4.1085 21.3576 4.24145 21.3576 4.40684C21.3576 4.56789 21.396 4.70085 21.4727 4.8057C21.5505 4.90947 21.6543 4.96135 21.784 4.96135Z" fill="white"/>
<path d="M22.9352 4.09229C22.9352 3.95068 22.9801 3.83394 23.0698 3.74207C23.1606 3.65019 23.2768 3.60425 23.4184 3.60425C23.5621 3.60425 23.6783 3.65073 23.767 3.74369C23.8567 3.83557 23.9016 3.95501 23.9016 4.10201V4.21713C23.9016 4.35981 23.8562 4.47655 23.7654 4.56735C23.6756 4.65707 23.5611 4.70193 23.4216 4.70193C23.2811 4.70193 23.1649 4.65707 23.073 4.56735C22.9811 4.47655 22.9352 4.35603 22.9352 4.20578V4.09229ZM23.159 4.21713C23.159 4.30144 23.1827 4.37116 23.2303 4.42629C23.2779 4.48034 23.3416 4.50736 23.4216 4.50736C23.4984 4.50736 23.56 4.48088 23.6065 4.42791C23.654 4.37495 23.6778 4.30253 23.6778 4.21065V4.09229C23.6778 4.00797 23.6546 3.93825 23.6081 3.88313C23.5616 3.828 23.4984 3.80044 23.4184 3.80044C23.3384 3.80044 23.2752 3.828 23.2287 3.88313C23.1822 3.93825 23.159 4.01014 23.159 4.09877V4.21713ZM24.0848 5.4202C24.0848 5.2786 24.1296 5.1624 24.2193 5.0716C24.3101 4.97973 24.4263 4.93379 24.5679 4.93379C24.7095 4.93379 24.8257 4.97918 24.9165 5.06998C25.0073 5.16078 25.0527 5.2813 25.0527 5.43155V5.54667C25.0527 5.68827 25.0073 5.80501 24.9165 5.89689C24.8268 5.98769 24.7117 6.03309 24.5712 6.03309C24.4307 6.03309 24.3145 5.98823 24.2226 5.89851C24.1307 5.80771 24.0848 5.68719 24.0848 5.53694V5.4202ZM24.3085 5.54667C24.3085 5.63206 24.3323 5.70232 24.3799 5.75745C24.4274 5.8115 24.4912 5.83852 24.5712 5.83852C24.649 5.83852 24.7112 5.81204 24.7576 5.75907C24.8041 5.70503 24.8274 5.63206 24.8274 5.54019V5.4202C24.8274 5.33481 24.8036 5.26509 24.756 5.21104C24.7095 5.157 24.6468 5.12997 24.5679 5.12997C24.4912 5.12997 24.4285 5.157 24.3799 5.21104C24.3323 5.26401 24.3085 5.33589 24.3085 5.42669V5.54667ZM23.4897 5.82069L23.3195 5.71367L24.4723 3.86853L24.6425 3.97555L23.4897 5.82069Z" fill="white"/>
</svg>
