<svg width="98" height="112" viewBox="0 0 98 112" fill="none" xmlns="http://www.w3.org/2000/svg">
<path d="M90.3238 97.2718H88.0077V41.6879C89.2868 41.6879 90.3238 40.6509 90.3238 39.3718V32.0269C93.022 31.0729 94.9557 28.5008 94.9557 25.4759V11.5799C94.9481 5.18775 89.7682 0.00759936 83.3758 0H13.896C7.5036 0.00759936 2.32367 5.18775 2.31607 11.5799V25.4759C2.31607 28.5008 4.24978 31.0729 6.94798 32.0269V39.3718C6.94798 40.6509 7.98497 41.6879 9.26405 41.6879V97.2718H6.94798C3.11074 97.2718 0 100.383 0 104.22C0 108.057 3.11074 111.168 6.94798 111.168H90.3238C94.161 111.168 97.2718 108.057 97.2718 104.22C97.2718 100.383 94.161 97.2718 90.3238 97.2718ZM83.3758 97.2718H78.7439V88.0077H74.112V97.2718H62.2811C65.288 94.3295 67.1581 90.23 67.164 85.6919C73.5563 85.6843 78.7363 80.5041 78.7439 74.112V67.164C78.7439 65.8849 77.7069 64.8479 76.4278 64.8479H67.1638V62.5318C67.1638 61.2528 66.1268 60.2158 64.8477 60.2158H32.4238C31.1448 60.2158 30.1078 61.2528 30.1078 62.5318V85.6919C30.1136 90.2302 31.9837 94.3295 34.9907 97.2718H23.1598V41.6879C24.4389 41.6879 25.4759 40.6509 25.4759 39.3718V32.4238H37.0558V34.7399C37.0558 36.019 38.0927 37.056 39.3718 37.056H41.6879V46.32C41.6879 47.5991 42.7249 48.6361 44.004 48.6361H46.32V53.268H50.9519V48.6359H53.268C54.5471 48.6359 55.5841 47.5989 55.5841 46.3198V37.0558H57.9001C59.1792 37.0558 60.2162 36.0188 60.2162 34.7397V32.4236H71.7961V39.3716C71.7961 40.6507 72.8331 41.6877 74.1122 41.6877V60.2156H78.7441V41.6879H83.3758V97.2718ZM34.7399 85.6919V64.8479H62.5318V85.6919C62.5242 92.0842 57.3441 97.2642 50.9519 97.2718H46.32C39.9277 97.2642 34.7475 92.084 34.7399 85.6919ZM67.1638 69.4798H74.1117V74.1117C74.1117 77.949 71.001 81.0597 67.1638 81.0597V69.4798ZM11.5799 37.056V32.4241H20.8439V37.056H11.5799ZM46.3198 44.004V37.056H50.9517V44.004H46.3198ZM85.6919 37.056H76.4278V32.4241H85.6919V37.056V37.056ZM6.94798 11.5799C6.94798 7.74266 10.0587 4.63192 13.896 4.63192H83.3758C87.213 4.63192 90.3238 7.74266 90.3238 11.5799V25.4759C90.3238 26.7549 89.2868 27.7919 88.0077 27.7919H74.1117H23.16H9.26405C7.98497 27.7919 6.94798 26.7549 6.94798 25.4759V11.5799ZM13.896 41.6879H18.5279V97.2718H13.896V41.6879ZM90.3238 106.536H6.94798C5.6689 106.536 4.63192 105.499 4.63192 104.22C4.63192 102.941 5.6689 101.904 6.94798 101.904H46.3198H50.9517H90.3238C91.6029 101.904 92.6398 102.941 92.6398 104.22C92.6398 105.499 91.6029 106.536 90.3238 106.536Z" fill="#BD0707"/>
<path d="M20.8439 25.4759C25.9602 25.4759 30.1079 21.3284 30.1079 16.2118C30.1079 11.0953 25.9602 6.948 20.8439 6.948C15.7276 6.948 11.5798 11.0957 11.5798 16.212C11.5798 21.3284 15.7276 25.4759 20.8439 25.4759ZM20.8439 11.5799C23.402 11.5799 25.4758 13.6537 25.4758 16.2118C25.4758 18.7702 23.402 20.844 20.8439 20.844C18.2857 20.844 16.212 18.7702 16.212 16.212C16.212 13.6539 18.2857 11.5799 20.8439 11.5799Z" fill="#BD0707"/>
<path d="M85.6915 9.2641H81.0596V13.896H85.6915V9.2641Z" fill="#BD0707"/>
<path d="M76.4277 9.2641H62.5317V13.896H76.4277V9.2641Z" fill="#BD0707"/>
<path d="M85.6915 18.5279H81.0596V23.1598H85.6915V18.5279Z" fill="#BD0707"/>
<path d="M76.4277 18.5279H62.5317V23.1598H76.4277V18.5279Z" fill="#BD0707"/>
<path d="M44.0035 69.4798H39.3716V74.1118H44.0035V69.4798Z" fill="#BD0707"/>
<path d="M44.0035 78.7439H39.3716V83.3759H44.0035V78.7439Z" fill="#BD0707"/>
<path d="M53.2679 69.4798H48.636V74.1118H53.2679V69.4798Z" fill="#BD0707"/>
</svg>
