<svg width="111" height="121" viewBox="0 0 111 121" fill="none" xmlns="http://www.w3.org/2000/svg">
<path d="M11.1316 34.0852C9.05839 34.311 7.11835 35.3083 5.19734 37.1146C2.72475 39.4478 1.18413 41.9315 0.366276 44.8668C-0.109222 46.5791 -0.128242 50.6998 0.347256 52.3932C1.58355 56.8338 4.28438 60.8981 8.06935 64.0027L9.30565 65L9.9333 63.2689L10.561 61.5378L9.26761 60.296C4.66478 55.9307 2.70573 50.6245 3.88496 45.7324C4.66478 42.5336 6.45266 40.0687 8.83015 38.8833C12.482 37.077 16.1718 37.8672 19.8998 41.2541L20.9839 42.2326L21.9919 40.7837L23 39.3349L21.9539 38.4129C19.6905 36.3996 16.5903 34.7626 14.0226 34.2357C12.7673 33.9535 12.4249 33.9535 11.1316 34.0852Z" fill="#BD0707"/>
<path d="M33.2543 36.4362C32.9903 36.8246 32.9526 37.1576 33.0469 38.0824C33.1035 38.7297 33.2732 39.6175 33.4052 40.0799L33.6503 40.8938L35.423 41.0047C41.5895 41.3932 47.6429 44.0751 52.018 48.3847C56.6005 52.8607 58.0337 56.9668 58.0525 65.4935C58.0714 72.9474 58.6371 75.1115 60.9755 76.6836C62.8047 77.9229 65.4448 78.5702 70.065 78.9032C75.3453 79.2916 80.2106 78.5147 84.6988 76.5172L86 75.9438L85.3777 75.1669C81.6627 70.4874 77.6082 66.0484 72.2148 60.777C61.5412 50.3452 51.3202 42.6324 42.6833 38.4893C38.9683 36.7137 37.2711 36.1588 35.2155 36.0478C33.6126 35.9553 33.5749 35.9553 33.2543 36.4362Z" fill="#BD0707"/>
<path d="M26.767 45.3204C20.8612 53.7843 16.0206 64.2143 14.2077 72.3786C12.7686 78.8014 12.6191 85.0182 13.7405 90.5983C15.9645 101.609 24.5056 112.282 35.2333 117.469C40.7467 120.128 46.0171 121.196 52.5024 120.971C58.6325 120.746 63.8842 119.585 70.5377 116.964C76.4622 114.623 83.6763 110.691 89.0215 106.908C90.0121 106.197 90.1616 106.028 89.8625 105.934C88.2179 105.354 86.3115 104.511 84.0875 103.35C66.8372 94.437 43.3819 71.6483 32.5421 53.2974C31.0843 50.8257 29.3088 47.324 28.5799 45.4702C28.2996 44.7399 28.0192 44.0845 27.9258 44.0096C27.851 43.916 27.3277 44.5152 26.767 45.3204ZM46.989 77.7902C51.6427 78.9886 54.8199 82.1158 56.1842 86.8907C56.5393 88.1079 56.614 88.782 56.5953 90.9729C56.5953 93.2012 56.5019 93.8753 56.0907 95.4669C54.5769 101.122 50.3905 106.552 45.1948 109.567C41.9055 111.477 37.719 112.544 34.2989 112.357C32.0187 112.226 30.6918 111.87 28.5238 110.803C22.5245 107.863 20.1323 100.635 22.618 93.0139C23.9075 89.0067 26.7857 84.9246 30.1498 82.2656C35.5137 78.0336 41.5877 76.4232 46.989 77.7902Z" fill="#BD0707"/>
<path d="M40.1615 84.3945C37.2922 85.1271 35.1259 86.4044 32.8836 88.6586C31.0594 90.4807 30.2423 91.5702 29.3112 93.4862C28.304 95.5525 28 96.8674 28 99.1215L28.019 101L28.5321 99.4972C30.0523 95.1204 33.5677 92.3403 38.3943 91.6829C40.1425 91.4387 41.4347 90.8376 42.2328 89.8796C42.9359 89.0343 43.2779 88.1326 43.5629 86.3481C43.677 85.6155 43.829 84.8077 43.886 84.5072L44 84L42.8029 84.0188C42.1378 84.0188 40.9406 84.1878 40.1615 84.3945Z" fill="#BD0707"/>
<path d="M49.5991 89.7806C49.5236 90.2267 49.127 91.2489 48.7115 92.0853C47.7862 93.9625 45.6899 96.1184 43.8769 97.0477C42.6116 97.6982 40.1943 98.3859 39.1179 98.3859C37.7015 98.4045 35.8507 99.6126 35.1142 101.025C34.9254 101.415 34.661 102.345 34.5666 103.107C34.4532 103.85 34.2833 104.761 34.1889 105.095C34.0755 105.449 34 105.802 34 105.895C34 106.173 37.0594 105.857 38.3436 105.43C40.8364 104.631 42.7249 103.497 44.7834 101.601C48.4282 98.2186 50.4867 93.4978 49.9013 89.9293L49.7502 89L49.5991 89.7806Z" fill="#BD0707"/>
<path d="M98.2411 46.231C97.4032 46.6346 97.7383 48.0288 99.2652 50.6704C100.364 52.5416 101.22 54.743 101.779 57.1095C102.3 59.366 102.337 63.7504 101.835 66.0068C100.196 73.4732 95.746 78.8299 88.2235 82.4439C83.7547 84.5719 79.4162 85.5992 74.3144 85.7643L71 85.8744L72.9737 87.4154C74.0723 88.2592 75.8784 89.6168 76.9956 90.4056C79.2859 92.0383 79.379 92.0566 81.6134 91.598C86.4919 90.589 90.9234 88.1675 94.7591 84.4068C96.8632 82.3705 97.5149 82.0586 99.0045 82.3705C100.978 82.7924 102.077 84.9388 101.276 86.8283C100.941 87.5988 98.539 90.0937 96.6956 91.5613C94.1447 93.5793 90.6441 95.5789 88.1304 96.4411L87.1063 96.7896L88.9683 97.6518C91.631 98.881 94.4426 99.7799 96.0625 99.8899L97.4218 100L98.9486 98.5507C105.075 92.6987 109.041 84.4985 110.474 74.7023C110.977 71.3452 111.145 66.0068 110.865 63.1634C110.046 55.0182 106.844 49.0928 101.891 46.6529C100.531 45.9741 99.1162 45.809 98.2411 46.231Z" fill="#BD0707"/>
<path d="M37.9833 49.609C41.2224 54.9785 46.8715 62.4621 51.0938 67.0084L52 68V66.2601C52 63.8466 51.6722 60.4602 51.3059 59.1132C50.5925 56.4004 48.6067 53.7437 45.8111 51.7044C43.4203 49.9457 40.4512 48.6174 37.9062 48.1684L37 48L37.9833 49.609Z" fill="#BD0707"/>
<path d="M74.6656 32.448C74.6656 31.776 74.8736 31.216 75.2896 30.768C75.7376 30.32 76.2816 30.096 76.9216 30.096C79.0656 30.032 80.8096 29.44 82.1536 28.32C83.5296 27.168 84.2176 25.536 84.2176 23.424C84.2176 21.6 83.5936 20.096 82.3456 18.912C81.0976 17.696 79.5616 17.088 77.7376 17.088C76.7136 17.088 75.7216 17.312 74.7616 17.76C73.8336 18.176 73.0176 18.752 72.3136 19.488C71.6736 20.064 71.0336 20.352 70.3936 20.352C69.9456 20.352 69.5296 20.208 69.1456 19.92C68.4416 19.408 68.0896 18.816 68.0896 18.144C68.0896 17.568 68.3296 17.04 68.8096 16.56C69.8976 15.312 71.2096 14.336 72.7456 13.632C74.3136 12.928 75.9776 12.576 77.7376 12.576C79.7856 12.576 81.6416 13.04 83.3056 13.968C85.0016 14.896 86.3456 16.192 87.3376 17.856C88.3296 19.488 88.8256 21.344 88.8256 23.424C88.8256 25.344 88.3936 27.056 87.5296 28.56C86.6976 30.032 85.5456 31.232 84.0736 32.16C82.6016 33.056 80.9376 33.6 79.0816 33.792C79.0496 33.792 79.0336 33.808 79.0336 33.84C79.0656 33.84 79.1136 33.824 79.1776 33.792V36.96C79.1776 37.6 78.9536 38.144 78.5056 38.592C78.0896 39.04 77.5616 39.264 76.9216 39.264C76.2496 39.264 75.6896 39.04 75.2416 38.592C74.8256 38.144 74.6336 37.6 74.6656 36.96V32.448ZM76.7776 48C76.0096 48 75.4176 47.792 75.0016 47.376C74.5856 46.928 74.3776 46.32 74.3776 45.552V44.64C74.3776 43.872 74.5856 43.28 75.0016 42.864C75.4176 42.416 76.0096 42.192 76.7776 42.192H77.2576C78.0256 42.192 78.6176 42.416 79.0336 42.864C79.4496 43.28 79.6576 43.872 79.6576 44.64V45.552C79.6576 46.32 79.4496 46.928 79.0336 47.376C78.6176 47.792 78.0256 48 77.2576 48H76.7776Z" fill="#BD0707"/>
</svg>
