<svg width="36" height="36" viewBox="0 0 36 36" fill="none" xmlns="http://www.w3.org/2000/svg">
<g clip-path="url(#clip0)">
<path d="M29.5609 35.3837C21.8614 36.2054 14.1386 36.2054 6.43909 35.3837C3.36896 35.056 0.944 32.631 0.616333 29.5606C-0.205444 21.8611 -0.205444 14.1386 0.616333 6.43909C0.944 3.36896 3.36896 0.944 6.43909 0.616333C14.1386 -0.205444 21.8611 -0.205444 29.5606 0.616333C32.631 0.944 35.056 3.36896 35.3837 6.43909C36.2054 14.1386 36.2054 21.8611 35.3837 29.5606C35.056 32.631 32.6313 35.056 29.5609 35.3837Z" fill="url(#paint0_linear)"/>
<path d="M33.4256 7.74126C33.135 5.01692 30.9833 2.86497 28.2587 2.57411C21.4263 1.84517 14.5736 1.84517 7.7412 2.57411C5.01686 2.86497 2.86491 5.01692 2.57405 7.74126C1.84511 14.5737 1.84511 21.4264 2.57405 28.2585C2.86491 30.9831 5.01686 33.1351 7.7412 33.4256C14.5736 34.1549 21.4263 34.1549 28.2584 33.4256C30.983 33.1351 33.135 30.9831 33.4256 28.2585C34.1548 21.4264 34.1548 14.5737 33.4256 7.74126Z" fill="url(#paint1_linear)"/>
<path d="M0.539062 28.8144C0.563782 29.0632 0.589325 29.3121 0.615967 29.5609C0.943634 32.631 3.36859 35.056 6.439 35.3837C14.1385 36.2054 21.8611 36.2054 29.5605 35.3837C32.631 35.056 35.0556 32.631 35.3833 29.5609C35.4099 29.3121 35.4355 29.0632 35.4605 28.8144H0.539062Z" fill="url(#paint2_linear)"/>
<path d="M35.9923 16.7349L28.5196 9.26257C27.6822 9.7413 26.9442 10.0069 26.3883 10.1541C26.0757 10.2379 25.8206 10.2835 25.6371 10.3085C24.7944 9.44467 23.6178 8.90826 22.3154 8.90826C19.7528 8.90826 17.675 10.9858 17.675 13.5489C17.675 13.6414 17.6775 13.7329 17.6835 13.8241C17.6959 14.0463 17.7242 14.2646 17.7679 14.477C16.6981 14.461 13.2209 14.1754 9.90466 11.3327C9.90439 11.3327 9.90439 11.3324 9.90439 11.3324H9.90411L8.34021 9.76822C8.34021 9.76822 6.50549 12.9705 9.20291 15.4004C9.32129 15.5325 9.45148 15.6629 9.59402 15.7912C9.60529 15.8038 9.6171 15.8162 9.62836 15.8288C9.27432 15.8049 8.20947 15.6989 7.59314 15.2636C7.59314 15.2636 7.46927 17.2208 9.09991 18.6617L10.4166 19.9896C10.0156 20.0229 9.57205 20.0149 9.26361 19.8798C9.26361 19.8798 9.53662 21.0391 10.5919 21.9669L12.4365 23.8211C11.3299 24.4657 9.3927 25.2724 6.84277 25.0664L18.0326 36C21.8773 35.9989 25.722 35.7935 29.5609 35.3837C32.6313 35.056 35.0562 32.631 35.3839 29.5609C35.8395 25.29 36.042 21.0119 35.9923 16.7349Z" fill="url(#paint3_linear)"/>
<path d="M29.1577 11.0649C28.3611 11.4815 27.1614 11.6741 26.7637 11.7296C26.7604 11.7103 26.7571 11.6919 26.7538 11.6735C28.106 10.8372 28.5199 9.26257 28.5199 9.26257C27.6825 9.7413 26.9445 10.0069 26.3885 10.1541C26.076 10.2379 25.8208 10.2832 25.6374 10.3085C24.7947 9.4444 23.6181 8.90826 22.3156 8.90826C19.7531 8.90826 17.6753 10.9855 17.6753 13.5489C17.6753 13.6412 17.6778 13.7329 17.6838 13.8238C17.6962 14.046 17.7245 14.2644 17.7681 14.4767C16.5278 14.4583 12.0506 14.0779 8.34048 9.76822C8.34048 9.76822 6.27451 13.3728 9.74783 15.8351C9.74783 15.8351 8.34048 15.7912 7.59341 15.2636C7.59341 15.2636 7.37369 18.7369 11.3741 19.8355C11.3741 19.8355 9.96756 20.1877 9.26361 19.8798C9.26361 19.8798 9.96729 22.8691 13.4843 23.0894C13.4843 23.0894 10.9618 25.3987 6.84277 25.0664C8.86865 26.3491 11.2705 27.0915 13.8457 27.0915C21.0865 27.0915 26.9565 21.2217 26.9565 13.9809C26.9565 13.8906 26.9557 13.8002 26.9538 13.7098C26.9557 13.6563 26.9565 13.603 26.9565 13.5489C26.9565 13.5113 26.9557 13.4736 26.9552 13.436C28.2939 12.5439 29.1577 11.0649 29.1577 11.0649Z" fill="white"/>
</g>
<defs>
<linearGradient id="paint0_linear" x1="11.9527" y1="5.06153" x2="21.0581" y2="24.5429" gradientUnits="userSpaceOnUse">
<stop stop-color="#00C3FF"/>
<stop offset="1" stop-color="#00B0ED"/>
</linearGradient>
<linearGradient id="paint1_linear" x1="25.6136" y1="22.0842" x2="-26.6897" y2="-5.97318" gradientUnits="userSpaceOnUse">
<stop stop-color="#00B0ED" stop-opacity="0"/>
<stop offset="1" stop-color="#00A2CE"/>
</linearGradient>
<linearGradient id="paint2_linear" x1="17.9997" y1="30.7535" x2="17.9997" y2="35.4707" gradientUnits="userSpaceOnUse">
<stop stop-color="#00B0ED" stop-opacity="0"/>
<stop offset="1" stop-color="#00A2CE"/>
</linearGradient>
<linearGradient id="paint3_linear" x1="34.4124" y1="33.8957" x2="16.8253" y2="16.3086" gradientUnits="userSpaceOnUse">
<stop stop-color="#00B0ED" stop-opacity="0"/>
<stop offset="1" stop-color="#00A2CE"/>
</linearGradient>
<clipPath id="clip0">
<rect width="36" height="36" fill="white"/>
</clipPath>
</defs>
</svg>
