<svg width="36" height="36" viewBox="0 0 36 36" fill="none" xmlns="http://www.w3.org/2000/svg">
<g clip-path="url(#clip0)">
<path d="M2.24957 2.44951C-0.579434 5.38801 -0.000433534 8.50951 -0.000433534 17.9925C-0.000433534 25.8675 -1.37443 33.762 5.81657 35.6205C8.06207 36.198 27.9581 36.198 30.2006 35.6175C33.1946 34.845 35.6306 32.4165 35.9636 28.182C36.0101 27.591 36.0101 8.40451 35.9621 7.80151C35.6081 3.29101 32.8316 0.691509 29.1731 0.165009C28.3346 0.0435086 28.1666 0.00750857 23.8646 8.56444e-06C8.60507 0.00750857 5.26007 -0.671992 2.24957 2.44951Z" fill="url(#paint0_linear)"/>
<path d="M17.9967 4.70851C12.5502 4.70851 7.37822 4.22401 5.40272 9.29401C4.58672 11.388 4.70522 14.1075 4.70522 18.0015C4.70522 21.4185 4.59572 24.63 5.40272 26.7075C7.37372 31.7805 12.5877 31.2945 17.9937 31.2945C23.2092 31.2945 28.5867 31.8375 30.5862 26.7075C31.4037 24.5925 31.2837 21.9135 31.2837 18.0015C31.2837 12.8085 31.5702 9.45601 29.0517 6.93901C26.5017 4.38901 23.0532 4.70851 17.9907 4.70851H17.9967ZM16.8057 7.10401C28.1667 7.08601 29.6127 5.82301 28.8147 23.3685C28.5312 29.574 23.8062 28.893 17.9982 28.893C7.40822 28.893 7.10372 28.59 7.10372 17.9955C7.10372 7.27801 7.94372 7.11001 16.8057 7.10101V7.10401ZM25.0917 9.31051C24.2112 9.31051 23.4972 10.0245 23.4972 10.905C23.4972 11.7855 24.2112 12.4995 25.0917 12.4995C25.9722 12.4995 26.6862 11.7855 26.6862 10.905C26.6862 10.0245 25.9722 9.31051 25.0917 9.31051ZM17.9967 11.175C14.2272 11.175 11.1717 14.232 11.1717 18.0015C11.1717 21.771 14.2272 24.8265 17.9967 24.8265C21.7662 24.8265 24.8202 21.771 24.8202 18.0015C24.8202 14.232 21.7662 11.175 17.9967 11.175ZM17.9967 13.5705C23.8542 13.5705 23.8617 22.4325 17.9967 22.4325C12.1407 22.4325 12.1317 13.5705 17.9967 13.5705Z" fill="white"/>
</g>
<defs>
<linearGradient id="paint0_linear" x1="2.3186" y1="33.7007" x2="35.7768" y2="4.74298" gradientUnits="userSpaceOnUse">
<stop stop-color="#FFDD55"/>
<stop offset="0.5" stop-color="#FF543E"/>
<stop offset="1" stop-color="#C837AB"/>
</linearGradient>
<clipPath id="clip0">
<rect width="36" height="36" fill="white"/>
</clipPath>
</defs>
</svg>
