<svg width="140" height="151" viewBox="0 0 140 151" fill="none" xmlns="http://www.w3.org/2000/svg">
<path d="M21.5257 5.38153C21.5257 2.4096 19.1161 0 16.1442 0C13.1723 0 10.7627 2.4096 10.7627 5.38153V37.6707H21.5257V5.38153Z" fill="white"/>
<path d="M10.7627 59.1967H21.5257V86.1044H10.7627V59.1967Z" fill="white"/>
<path d="M78.0111 56.1619L87.2829 48.4338L78.0111 40.7057C77.8377 42.0485 76.6946 43.0523 75.3414 43.0523H0V53.8153H75.3414C76.6946 53.8153 77.8377 54.8191 78.0111 56.1619V56.1619Z" fill="white"/>
<path d="M113.013 91.4859H67.2697V94.1767C67.2697 95.2212 66.6653 96.1724 65.7193 96.6152C64.7733 97.058 63.6566 96.9134 62.8538 96.2434L46.7092 82.7896C46.097 82.2785 45.7422 81.5217 45.7422 80.7229C45.7422 79.9241 46.097 79.1673 46.7092 78.6562L62.8538 65.2024C63.6566 64.5323 64.7733 64.3878 65.7193 64.8306C66.6653 65.2733 67.2697 66.2246 67.2697 67.2691V69.9598H113.013V8.07229C113.013 3.6144 109.398 0 104.94 0H25.417C26.384 1.62917 26.899 3.48696 26.9082 5.38153V37.6707H72.6512V34.9799C72.6512 33.9354 73.2556 32.9842 74.2015 32.5414C75.1475 32.0986 76.2643 32.2432 77.067 32.9132L93.2116 46.367C93.8239 46.8781 94.1786 47.6349 94.1786 48.4337C94.1786 49.2326 93.8239 49.9893 93.2116 50.5004L77.067 63.9542C76.2643 64.6243 75.1475 64.7688 74.2015 64.326C73.2556 63.8833 72.6512 62.9321 72.6512 61.8875V59.1968H26.9082V145.301C26.9082 148.273 29.3178 150.683 32.2897 150.683C35.2617 150.683 37.6713 148.273 37.6713 145.301V137.229C37.6713 135.743 38.8761 134.538 40.362 134.538H113.013V91.4859ZM64.5789 26.9076H37.6713V21.5261H64.5789V26.9076ZM64.5789 16.1446H37.6713V10.7631H64.5789V16.1446ZM102.25 129.157H48.4343V123.775H102.25V129.157ZM102.25 118.394H48.4343V113.012H102.25V118.394ZM102.25 107.631H86.105V102.249H102.25V107.631Z" fill="white"/>
<path d="M64.5793 75.3413C64.2324 75.34 63.8895 75.2704 63.5702 75.1364C63.4717 75.0851 63.3771 75.0273 63.2851 74.9643C63.092 74.8644 62.9107 74.7422 62.7465 74.599C62.6597 74.5018 62.5796 74.3993 62.5073 74.2916C62.3759 74.1405 62.2643 73.9749 62.171 73.7963C62.1184 73.6701 62.0777 73.5387 62.0475 73.4034C61.991 73.272 61.9463 73.1354 61.9148 72.9948L52.6377 80.7229L61.9095 88.4509C61.9411 88.3104 61.9857 88.1737 62.0422 88.0423C62.0711 87.907 62.1132 87.7756 62.1657 87.6495C62.2577 87.4708 62.3707 87.3053 62.5021 87.1542C62.5743 87.0464 62.6545 86.9439 62.7412 86.8467C62.9054 86.7035 63.0867 86.5813 63.2799 86.4815C63.3718 86.4184 63.4664 86.3606 63.565 86.3094C63.8856 86.174 64.2311 86.1044 64.5793 86.1044H139.921V75.3413H64.5793Z" fill="white"/>
<path d="M121.085 139.92H43.0527V145.301C43.0553 147.192 42.5573 149.048 41.6074 150.683H121.085C124.057 150.683 126.466 148.273 126.466 145.301C126.466 142.329 124.057 139.92 121.085 139.92Z" fill="white"/>
</svg>
