<svg width="78" height="78" viewBox="0 0 78 78" fill="none" xmlns="http://www.w3.org/2000/svg">
<path d="M37.0242 0.699356C23.4599 1.39378 11.2073 9.26958 4.92763 21.3289C1.26546 28.3634 -0.0858557 36.403 1.0497 44.3352C3.0937 58.585 13.1888 70.5822 26.9574 75.127C29.8247 76.0755 32.7147 76.6627 35.9056 76.9506C37.4443 77.0861 40.7261 77.0861 42.2647 76.9506C45.4557 76.6627 48.3456 76.0755 51.2129 75.127C60.6948 71.9993 68.6267 65.2526 73.2427 56.3888C77.978 47.2879 78.8183 36.561 75.5593 26.7996C71.7552 15.4065 62.6707 6.37331 51.2129 2.59068C46.6764 1.09456 41.8503 0.450943 37.0242 0.699356ZM42.4351 1.05504C45.7168 1.36555 48.4535 1.94141 51.406 2.94071C58.0263 5.18207 63.8914 9.19618 68.4053 14.5822C73.0554 20.1207 76.0249 26.8899 76.9276 33.9753C77.1718 35.8835 77.2115 36.5893 77.2115 38.8588C77.2115 41.1284 77.1718 41.8341 76.9276 43.7424C75.7239 53.2103 70.8865 61.916 63.3861 68.115C54.6026 75.3754 42.8723 78.3056 31.5621 76.0586C21.0242 73.9696 11.8318 67.4996 6.28462 58.2576C3.33785 53.3514 1.57206 47.8638 1.04402 41.964C0.941823 40.8123 0.907757 38.0459 0.981568 36.7982C1.57774 26.6245 6.00073 17.4502 13.5919 10.6245C19.2754 5.52081 26.5884 2.17854 34.1739 1.23006C35.1051 1.11714 35.6501 1.06633 37.2399 0.953415C37.9553 0.902603 41.5607 0.975998 42.4351 1.05504Z" fill="#BD0707"/>
<path d="M37.0412 3.23994C23.0511 4.03599 10.8439 12.832 5.67712 25.8341C4.46207 28.8941 3.66151 32.3042 3.33219 35.8102C3.20161 37.2611 3.20161 40.4566 3.33219 41.9075C4.01353 49.2188 6.73887 55.892 11.2924 61.4135C17.0497 68.3917 25.044 72.8913 33.9752 74.1672C35.8205 74.4326 36.9106 74.506 39.0852 74.506C41.7027 74.506 43.5877 74.3366 45.9269 73.885C57.3279 71.6944 67.0426 64.0332 71.8233 53.47C73.4472 49.885 74.4521 46.012 74.8382 41.9075C74.9688 40.4566 74.9688 37.2611 74.8382 35.8102C74.56 32.8405 73.9922 30.1531 73.0724 27.4262C70.4493 19.6803 65.1633 13.024 58.1626 8.6429C51.8829 4.71347 44.4678 2.81651 37.0412 3.23994ZM39.8744 6.76287C41.6232 6.84756 42.0377 6.89837 42.5259 7.07903C43.2584 7.35003 43.5707 7.7904 43.5707 8.54692C43.5707 9.26958 43.3095 9.64784 42.6338 9.92448L42.3329 10.043L42.5998 10.139C42.9461 10.2576 43.3549 10.6189 43.5082 10.9294C43.6729 11.2625 43.6729 11.9174 43.5139 12.3465C43.3606 12.7417 42.9688 13.1087 42.5316 13.278C41.9638 13.4869 41.4358 13.5095 39.3975 13.4135C38.3698 13.3684 37.5125 13.3176 37.5011 13.3063C37.4784 13.2837 37.6771 8.61467 37.7623 7.25405L37.7964 6.67818H38.0008C38.1143 6.67818 38.9546 6.7177 39.8744 6.76287ZM34.7985 7.25405L35.0256 7.32745L35.0426 8.19688L35.0597 9.06068L34.8439 9.02116C34.032 8.86873 33.3904 8.8405 32.7885 8.94212C32.2775 9.02116 32.1015 9.12279 32.1015 9.33168C32.1015 9.60832 32.2605 9.66478 33.3336 9.75511C33.9127 9.80592 34.4351 9.87932 34.6565 9.94707C35.6558 10.2576 36.1214 10.9125 36.0646 11.9287C36.0306 12.4763 35.8773 12.8094 35.4571 13.2329C34.6111 14.0684 32.6977 14.4862 31.1022 14.1814L30.8127 14.1249L30.7729 13.278C30.7502 12.8094 30.7445 12.4142 30.7616 12.3973C30.7786 12.3804 30.9944 12.3973 31.2328 12.4425C31.9255 12.5667 32.9532 12.5441 33.4415 12.3917C33.8957 12.2505 33.9922 12.1715 33.9638 11.9457C33.9411 11.7142 33.7822 11.669 32.7204 11.5674C31.2953 11.4319 30.6934 11.1948 30.3017 10.6133C30.0575 10.2519 29.978 9.95835 29.978 9.43895C29.9724 8.6429 30.4209 8.01623 31.2783 7.60973C31.6246 7.44601 32.3854 7.24276 32.9248 7.16372C33.2655 7.11291 34.577 7.17501 34.7985 7.25405ZM47.5565 7.78475C48.0845 7.95977 48.5103 8.11784 48.5103 8.14043C48.5103 8.15736 48.2151 9.0381 47.8574 10.0882C47.3066 11.7029 47.2044 12.0586 47.2044 12.3465C47.2044 12.5836 47.2385 12.7473 47.3123 12.8659C47.4599 13.103 47.8915 13.3063 48.2662 13.3119C48.516 13.3119 48.5841 13.2893 48.7431 13.1425C48.9873 12.9111 49.0838 12.674 49.7822 10.585C50.1171 9.58574 50.4124 8.76711 50.4351 8.76711C50.4919 8.76711 52.2974 9.3712 52.3655 9.41072C52.4337 9.45589 51.1221 13.3063 50.878 13.7579C50.1342 15.1581 48.533 15.5138 46.7275 14.6725C45.4614 14.0854 44.8709 13.1313 45.0412 11.9682C45.115 11.4996 46.4663 7.46859 46.5515 7.46859C46.5799 7.46859 47.0341 7.60973 47.5565 7.78475ZM27.724 11.0085L27.6104 13.391L28.1555 14.4636C28.4507 15.0564 28.6949 15.5533 28.6949 15.5702C28.6949 15.5984 26.9064 16.5018 26.8496 16.5018C26.8325 16.5018 26.577 16.0106 26.2875 15.4065L25.7594 14.3169L23.7949 12.9675C22.7105 12.2279 21.8247 11.6069 21.8247 11.59C21.8247 11.5504 23.6814 10.6302 23.7609 10.6302C23.7949 10.6302 24.2492 10.9576 24.7715 11.3529C25.2939 11.7537 25.7481 12.0981 25.7878 12.1207C25.8446 12.1545 25.8616 11.9005 25.8503 10.873L25.8389 9.58574L26.8269 9.1002C27.3719 8.83485 27.8205 8.61467 27.8205 8.62032C27.8262 8.62596 27.7807 9.69865 27.724 11.0085ZM56.8283 12.0078C57.8503 12.3521 58.9631 13.2159 59.5252 14.108L59.6388 14.283L59.054 14.6951C58.736 14.9266 58.3954 15.1694 58.2988 15.2428L58.1171 15.3783L57.9468 15.079C57.7083 14.65 57.2144 14.1757 56.7942 13.9668C56.357 13.7523 55.8915 13.7297 55.494 13.9104C55.1704 14.0572 54.7729 14.4749 54.5572 14.8984C54.4152 15.175 54.3868 15.2992 54.3868 15.6549C54.3868 16.0219 54.4095 16.1178 54.5458 16.3493C54.8467 16.8574 55.5565 17.2639 56.3854 17.4107C56.5955 17.4502 56.7772 17.4841 56.7829 17.4898C56.7999 17.501 56.181 19.1665 56.147 19.2061C56.0845 19.2625 55.3748 19.0423 54.8865 18.8165C52.5416 17.7212 51.6615 15.8694 52.6097 13.9951C53.1548 12.9167 54.0008 12.1715 54.983 11.9005C55.4599 11.7706 56.2605 11.8214 56.8283 12.0078ZM23.5735 16.0445C24.5217 16.6147 25.2882 17.1002 25.2768 17.1228C25.2655 17.1454 24.9191 17.4502 24.5047 17.8003C23.9823 18.235 23.7211 18.4213 23.6587 18.3987C23.6076 18.3761 23.3577 18.235 23.0966 18.0826C22.8411 17.9245 22.614 17.8003 22.5969 17.8003C22.5515 17.8003 21.0185 19.0875 20.9504 19.1835C20.9163 19.2286 20.9788 19.4488 21.1434 19.8271C21.3478 20.3183 21.3762 20.4142 21.3081 20.482C20.9617 20.8151 19.8034 21.741 19.7751 21.7071C19.7183 21.645 17.2087 15.2032 17.2314 15.1807C17.2428 15.1694 17.7083 14.7798 18.2648 14.3112L19.2811 13.4644L20.5643 14.2378C21.274 14.6612 22.6253 15.4742 23.5735 16.0445ZM62.472 16.6203L63.1533 17.422L62.1086 18.3027C61.5352 18.7883 61.0866 19.1891 61.115 19.2004C61.1377 19.2117 61.8247 19.1383 62.6423 19.048C63.4543 18.952 64.181 18.873 64.2605 18.873C64.3911 18.873 64.5274 19.0141 65.8162 20.5272C65.8616 20.578 65.89 20.6344 65.8787 20.6457C65.8673 20.657 64.9702 20.7248 63.8801 20.7982L61.9099 20.928L61.8531 21.1256C61.8247 21.2385 61.609 22.1136 61.3705 23.079C61.1377 24.0388 60.9276 24.8744 60.8993 24.9252C60.8709 24.9986 60.6892 24.8179 60.0589 24.084L59.2641 23.1468L59.7069 21.5942C59.9567 20.7417 60.1441 20.036 60.1328 20.019C60.1157 20.0078 59.6558 20.386 59.0994 20.8546C58.3556 21.4869 58.0717 21.7015 58.0149 21.662C57.9695 21.6337 57.6572 21.2837 57.3109 20.8772L56.6863 20.1489L56.8396 19.9965C57.0554 19.7932 61.7396 15.8243 61.768 15.8243C61.7793 15.8243 62.0973 16.1856 62.472 16.6203ZM41.7538 16.5864C45.9213 17.0889 49.7424 18.6133 53.0242 21.0804C54.7956 22.4072 56.6977 24.3606 57.9752 26.1616C59.9113 28.8885 61.2115 31.9598 61.8191 35.2456C62.103 36.7643 62.1654 37.5152 62.1654 39.3952C62.1654 41.7156 61.9951 43.1044 61.4557 45.1538C60.3883 49.2639 58.3272 52.7812 55.2328 55.796C51.5025 59.4262 46.9887 61.566 41.697 62.2152C40.533 62.3564 37.6942 62.3564 36.5302 62.2152C32.5217 61.724 29.0015 60.386 25.7992 58.1447C24.005 56.8913 22.0235 54.983 20.7062 53.2385C18.191 49.9245 16.692 46.1983 16.164 41.964C16.0902 41.3373 16.0618 40.7332 16.0618 39.3952C16.0618 38.0572 16.0902 37.4531 16.164 36.8264C16.6296 33.0889 17.8616 29.7184 19.8545 26.7488C20.8368 25.2809 21.7112 24.2421 23.0511 22.9379C26.9858 19.1157 31.9142 16.9308 37.5806 16.4792C38.2563 16.4284 41.0213 16.4961 41.7538 16.5864ZM16.6069 20.29C17.9014 21.6281 18.9631 22.7403 18.9745 22.7629C18.9802 22.7855 18.7303 23.2258 18.4181 23.7339C17.9922 24.4284 17.8219 24.6542 17.7481 24.6373C17.697 24.6316 16.7602 24.3437 15.6643 24.0049C14.5742 23.6718 13.6771 23.4008 13.6658 23.4065C13.6601 23.4178 14.3301 24.1178 15.1533 24.9703C16.1186 25.9696 16.6466 26.5512 16.6239 26.6076C16.5614 26.7713 15.5508 28.3691 15.494 28.3917C15.4316 28.4142 9.00998 26.4721 8.94752 26.41C8.91914 26.3874 9.3109 25.7212 9.90139 24.7897L10.1001 24.4735L11.917 25.2639C12.9163 25.6987 13.7964 26.0769 13.8758 26.1051C13.9553 26.139 13.3365 25.4785 12.5018 24.6485C11.6615 23.813 10.9802 23.1129 10.9802 23.0847C10.9802 23.0169 12.1839 21.0748 12.2236 21.0748C12.2463 21.0748 13.1775 21.3797 14.3017 21.7523C15.636 22.1926 16.3059 22.3903 16.2321 22.3225C16.1697 22.266 15.4316 21.6563 14.5969 20.9675C13.5409 20.0981 13.081 19.6859 13.1037 19.6295C13.1604 19.4771 14.1768 17.8567 14.2165 17.8567C14.2335 17.8567 15.3123 18.952 16.6069 20.29ZM66.9858 23.3274C67.9681 23.8073 68.8311 25.4502 68.9787 27.1214L69.0185 27.5448L68.2236 27.7537C67.7864 27.8666 67.389 27.9626 67.3435 27.9626C67.2811 27.9626 67.2584 27.8384 67.23 27.4375C67.1902 26.8391 67.0313 26.1842 66.8155 25.7043C66.6338 25.2978 66.5146 25.1792 66.2988 25.2075C66.0433 25.2357 66.0149 25.4898 66.1626 26.331C66.2307 26.7149 66.2988 27.1835 66.3159 27.3754C66.3897 28.0981 66.1228 28.9054 65.697 29.2272C65.3961 29.4587 64.9078 29.6563 64.5387 29.6902C63.6757 29.7805 62.8127 29.2272 62.1938 28.1941C61.7225 27.4037 61.3137 26.0317 61.3535 25.3599L61.3705 25.0607L62.1654 24.8461C62.6026 24.7276 62.9717 24.6316 62.9887 24.6316C63.0057 24.6316 63.0511 24.9139 63.0852 25.2526C63.1704 26.0148 63.335 26.6471 63.5792 27.1157C63.8063 27.5674 64.005 27.7255 64.2037 27.6351C64.2832 27.6013 64.3627 27.5053 64.3854 27.4262C64.4025 27.3472 64.3627 26.9238 64.2946 26.4834C64.1299 25.4502 64.1299 24.7671 64.3003 24.3267C64.6863 23.2936 65.9582 22.8193 66.9858 23.3274ZM9.07244 39.7396C9.70267 39.9033 10.5259 40.3888 11.0256 40.9026L11.2641 41.151L10.9404 41.247C10.4805 41.3881 9.873 41.693 9.50395 41.9696C9.33361 42.0995 9.19167 42.1842 9.18031 42.1503C9.16896 42.1221 9.06676 41.9414 8.94752 41.7438C8.55576 41.0833 7.86875 40.5582 7.0625 40.2985C6.89217 40.2421 6.72751 40.1799 6.69912 40.1574C6.64802 40.1066 6.97166 39.8864 7.26122 39.7735C7.73816 39.5815 8.41381 39.5702 9.07244 39.7396ZM70.9205 39.7396C71.2612 39.8525 71.6473 40.0953 71.5849 40.1574C71.5565 40.1799 71.3918 40.2421 71.2215 40.2985C70.4152 40.5582 69.7282 41.0833 69.3364 41.7438C69.2172 41.9414 69.115 42.1221 69.1037 42.1503C69.0923 42.1842 68.9504 42.0995 68.78 41.9696C68.411 41.693 67.8034 41.3881 67.3435 41.247L67.0199 41.151L67.2584 40.9026C67.9 40.2477 68.8254 39.7678 69.7169 39.6323C70.0007 39.5871 70.631 39.6436 70.9205 39.7396ZM6.7559 40.6881C7.68706 41.0042 8.27755 41.4615 8.62389 42.1503L8.82261 42.5399L8.56711 42.8221C8.1867 43.2456 7.81197 43.8723 7.60757 44.4481L7.42588 44.9619L7.1136 44.6344C6.08024 43.5504 5.65441 42.1503 6.02346 41.0663C6.11431 40.7953 6.25625 40.5526 6.31871 40.5526C6.34142 40.5526 6.54014 40.6147 6.7559 40.6881ZM72.1697 40.8461C72.6977 41.8962 72.2832 43.4714 71.1704 44.6344L70.8581 44.9619L70.6764 44.4481C70.472 43.8723 70.0973 43.2456 69.7169 42.8221L69.4614 42.5399L69.6601 42.1503C69.8929 41.6874 70.3698 41.2018 70.8297 40.976C71.1988 40.784 71.846 40.5582 71.9539 40.5695C71.9993 40.5751 72.0959 40.6994 72.1697 40.8461ZM13.0412 41.7551C13.2172 41.8341 13.3648 41.9245 13.3648 41.9527C13.3648 42.0769 13.0071 43.0254 12.8709 43.2569C12.5018 43.8948 11.7978 44.3804 10.9688 44.5836C10.4521 44.7078 10.0547 44.8885 9.65157 45.1877C9.08947 45.6055 8.77151 46.108 8.40246 47.1298L8.36271 47.2428L8.27187 47.1298C7.86875 46.6104 7.74383 45.6845 7.96527 44.8772C8.18102 44.0924 8.58982 43.4432 9.25412 42.8052C9.87868 42.2124 10.3613 41.9245 11.0937 41.6986C11.7013 41.5123 12.5643 41.5349 13.0412 41.7551ZM67.1278 41.6817C67.8489 41.885 68.3939 42.2011 69.0298 42.8052C69.6941 43.4432 70.103 44.0924 70.3187 44.8772C70.5401 45.6845 70.4152 46.6104 70.0121 47.1298L69.9213 47.2428L69.8815 47.1298C69.5125 46.108 69.1945 45.6055 68.6324 45.1877C68.2293 44.8885 67.8318 44.7078 67.3152 44.5836C66.4862 44.3804 65.7822 43.8948 65.4131 43.2569C65.2768 43.031 64.9191 42.0826 64.9191 41.9527C64.9191 41.8906 65.3336 41.6874 65.5834 41.6309C65.9809 41.5349 66.6849 41.5631 67.1278 41.6817ZM14.0859 42.7939C14.8581 44.4368 13.5238 46.9153 11.4344 47.717C10.8553 47.9428 10.1796 48.0332 9.72538 47.9541C9.29955 47.8807 8.74312 47.638 8.77719 47.542C8.79422 47.5025 8.87371 47.2597 8.95888 47C9.15192 46.4298 9.48124 45.9217 9.86165 45.6224C10.2534 45.3176 10.4748 45.2159 11.0994 45.0409C11.7807 44.849 12.1214 44.6852 12.5359 44.3521C12.9731 44.0021 13.3478 43.4488 13.592 42.8052C13.8077 42.2237 13.8134 42.2237 14.0859 42.7939ZM64.692 42.8109C64.9362 43.4488 65.3109 44.0021 65.7481 44.3521C66.1626 44.6852 66.5032 44.849 67.1846 45.0409C67.8091 45.2159 68.0306 45.3176 68.4223 45.6224C68.8027 45.9217 69.132 46.4298 69.3251 47C69.4103 47.2597 69.4897 47.5025 69.5068 47.542C69.5408 47.638 68.9844 47.8807 68.5586 47.9541C68.1044 48.0332 67.4287 47.9428 66.8496 47.717C65.6232 47.2484 64.5558 46.1249 64.1413 44.8715C63.9596 44.3126 63.9369 43.4545 64.0902 43.0367C64.181 42.8052 64.4479 42.3027 64.4876 42.3027C64.499 42.3027 64.5898 42.5286 64.692 42.8109ZM55.9653 59.9456C56.2094 60.3013 56.4025 60.6118 56.4025 60.6401C56.4025 60.6627 55.8404 61.0635 55.1533 61.5208C54.4663 61.9838 53.8929 62.379 53.8758 62.4015C53.8588 62.4298 54.154 62.9266 54.279 63.0734C54.2903 63.0847 54.7048 62.8306 55.1931 62.5032C55.6871 62.1814 56.1583 61.8708 56.2378 61.82L56.3854 61.724L56.8169 62.3733C57.0611 62.729 57.2541 63.0452 57.2541 63.0677C57.2541 63.096 56.8283 63.4065 56.3059 63.7565C55.7779 64.1065 55.3294 64.4171 55.301 64.4396C55.2272 64.5074 55.6757 65.1736 55.7722 65.1397C55.812 65.1228 56.3911 64.7445 57.0611 64.2929C57.7254 63.8412 58.2932 63.4742 58.3215 63.4742C58.367 63.4742 59.2413 64.7332 59.2413 64.7953C59.2413 64.8292 55.0398 67.6577 54.9546 67.6859C54.9035 67.7029 51.2641 62.3902 51.2243 62.2378C51.2073 62.187 55.3975 59.3077 55.4997 59.302C55.5167 59.2964 55.7268 59.59 55.9653 59.9456ZM23.6132 60.0586C24.4479 60.2731 25.521 60.9562 26.1285 61.6619C26.5146 62.1023 26.7303 62.4354 26.6792 62.5088C26.6452 62.5709 25.2598 63.5307 25.2144 63.5307C25.1973 63.5307 25.1065 63.3895 25.01 63.2202C24.7715 62.8024 24.2378 62.283 23.8574 62.0967C23.4543 61.8991 22.9773 61.8878 22.5799 62.0628C22.0519 62.2943 21.5181 63.0395 21.4443 63.6436C21.3876 64.1065 21.5125 64.4114 21.9042 64.801C22.3074 65.2018 22.7389 65.422 23.3464 65.5462C23.5849 65.597 23.7949 65.6478 23.8006 65.6535C23.812 65.6591 23.6757 66.0487 23.494 66.5173C23.2385 67.1778 23.142 67.3698 23.0625 67.3698C22.8978 67.3698 22.0632 67.048 21.6601 66.8278C20.1555 66.0092 19.3265 64.8744 19.3208 63.638C19.3152 63.0508 19.4174 62.6556 19.7296 62.0571C20.2577 61.0522 21.115 60.3013 22.0121 60.0586C22.4096 59.9569 23.1988 59.9513 23.6132 60.0586ZM50.7985 63.3726C50.9461 63.7791 51.0483 64.1291 51.0256 64.1517C51.0029 64.1743 50.3499 64.4284 49.5778 64.7163C48.7999 65.0042 48.1697 65.2639 48.1697 65.2978C48.1697 65.4051 48.4138 66.0148 48.4536 66.0148C48.4763 66.0148 48.7715 65.9132 49.1122 65.7833C49.4528 65.6535 49.9638 65.4672 50.2477 65.3655L50.7701 65.1792L51.0597 65.9414C51.2186 66.3648 51.3435 66.7149 51.3379 66.7205C51.3265 66.7262 50.8212 66.9181 50.2137 67.1439C49.6061 67.3698 49.0895 67.573 49.0611 67.59C48.9986 67.6521 49.2825 68.3578 49.3734 68.3521C49.4131 68.3465 50.0831 68.1094 50.8553 67.8214C51.6274 67.5335 52.269 67.3077 52.2804 67.319C52.3144 67.3698 52.8254 68.7643 52.8254 68.8151C52.8254 68.8885 47.9993 70.6669 47.9426 70.6104C47.9198 70.5822 47.3805 69.1877 46.7559 67.5109C45.8702 65.1623 45.626 64.4509 45.6828 64.4171C45.7736 64.355 50.3897 62.633 50.4692 62.633C50.5032 62.6274 50.6509 62.9605 50.7985 63.3726ZM29.7566 63.2484C30.9206 63.525 31.9085 64.2364 32.3627 65.1228C32.8056 65.9866 32.7431 67.2286 32.2151 68.2731C31.4713 69.7353 30.0291 70.4298 28.4223 70.1023C27.2073 69.8539 26.1455 69.1143 25.6913 68.1941C25.4642 67.7368 25.4074 67.4432 25.4017 66.8278C25.3961 65.0494 26.6509 63.4404 28.2406 63.175C28.6267 63.1129 29.3251 63.1468 29.7566 63.2484ZM45.098 65.0946C45.132 65.3712 45.1775 65.7438 45.1945 65.9358L45.2286 66.2745L43.7637 66.4552C42.9518 66.5568 42.2818 66.6358 42.2648 66.6358C42.2477 66.6358 42.2534 66.8391 42.2875 67.0875C42.3499 67.6238 42.2023 67.59 43.6558 67.4037C44.2179 67.3303 44.6835 67.2738 44.6892 67.2794C44.7232 67.3077 44.8936 68.8941 44.8652 68.9224C44.8482 68.9393 44.3315 69.0183 43.7069 69.0974C43.088 69.1764 42.577 69.2442 42.5714 69.2498C42.56 69.2555 42.6168 69.7466 42.6963 70.3338C42.7701 70.9266 42.8269 71.446 42.8155 71.4912C42.8042 71.5533 42.577 71.6041 41.8105 71.7001C41.2655 71.7678 40.7999 71.8017 40.7829 71.7847C40.7374 71.7283 39.9312 65.2696 39.9653 65.2357C39.9993 65.1962 44.5132 64.6203 44.8255 64.609L45.0299 64.6034L45.098 65.0946ZM36.7176 65.0212C38.0575 65.1623 39.1647 65.2865 39.1817 65.3034C39.2215 65.343 39.0795 66.8786 39.0341 66.9294C39.0114 66.9576 38.3698 66.9125 37.609 66.8334C36.8425 66.7544 36.1782 66.6923 36.1214 66.6923C36.0476 66.6923 36.0192 66.777 35.9908 67.1157C35.9681 67.3528 35.9624 67.5561 35.9738 67.573C35.9908 67.5843 36.5075 67.6464 37.132 67.7142C37.7509 67.7763 38.2676 67.8384 38.279 67.8497C38.3017 67.8722 38.137 69.4643 38.1086 69.4926C38.0973 69.4982 37.5919 69.4587 36.9901 69.3966C36.3826 69.3345 35.8602 69.295 35.8205 69.3063C35.7807 69.3232 35.7183 69.7523 35.6558 70.4241C35.5934 71.0282 35.5309 71.5363 35.5139 71.5589C35.4685 71.6097 33.5664 71.4347 33.4983 71.3726C33.4699 71.3444 33.5834 69.9894 33.7765 68.0473C34.0604 65.2696 34.1228 64.7727 34.2023 64.7727C34.2477 64.7727 35.3833 64.8857 36.7176 65.0212Z" fill="#BD0707"/>
<path d="M39.7438 8.86874C39.7268 9.19619 39.7154 9.46718 39.7211 9.47848C39.7381 9.49541 40.6125 9.51235 40.885 9.50671C40.9986 9.50106 41.1348 9.4446 41.2427 9.34298C41.3847 9.21877 41.4187 9.14538 41.4244 8.95342C41.4301 8.46789 41.2257 8.34368 40.3002 8.29852L39.7835 8.27594L39.7438 8.86874Z" fill="#BD0707"/>
<path d="M39.653 10.9238C39.653 11.0593 39.6359 11.3359 39.6132 11.5448L39.5792 11.9287H40.3286C41.22 11.9287 41.3733 11.8779 41.4755 11.5335C41.5607 11.2512 41.4642 10.9972 41.22 10.873C41.0781 10.7996 40.3286 10.7036 39.7552 10.6923C39.6757 10.6867 39.653 10.7375 39.653 10.9238Z" fill="#BD0707"/>
<path d="M19.2924 15.6323C19.582 16.3888 20.1555 17.6874 20.1895 17.6761C20.2633 17.6478 21.1945 16.8744 21.2002 16.8349C21.2002 16.8123 20.763 16.5131 20.2293 16.1687C19.6956 15.8186 19.2697 15.5815 19.2924 15.6323Z" fill="#BD0707"/>
<path d="M37.9213 17.7777C37.7963 17.789 37.3762 17.8285 36.9844 17.8624C34.4919 18.0713 31.7098 18.8673 29.3478 20.0473C27.1391 21.1425 24.8567 22.8419 23.2215 24.6034C19.8943 28.1884 17.9525 32.4509 17.4415 37.278C17.3506 38.1757 17.3506 40.5977 17.4415 41.5123C17.9411 46.3112 19.9 50.6133 23.2158 54.1814C24.8794 55.9711 27.1278 57.6422 29.4103 58.777C31.6132 59.8723 34.066 60.5949 36.7005 60.9167C37.8418 61.0522 40.3741 61.0522 41.5267 60.9111C46.2222 60.3465 50.2193 58.5511 53.7566 55.4121C55.6189 53.7579 57.4188 51.398 58.6054 49.0437C59.7467 46.7798 60.5075 44.1545 60.7857 41.5123C60.8822 40.6034 60.8822 38.187 60.7857 37.278C60.1611 31.3331 57.2995 26.139 52.5756 22.3846C51.9908 21.9216 50.5316 20.9393 49.8446 20.5554C47.2839 19.1157 44.2917 18.1672 41.3279 17.8567C40.7374 17.7946 38.3187 17.7382 37.9213 17.7777ZM46.279 23.8073C47.0171 24.0049 47.6643 24.4114 48.3173 25.1002C49.0213 25.8398 49.4188 26.6866 49.4188 27.4488C49.4131 28.29 48.9248 28.753 48.0447 28.753C46.3187 28.7473 44.2463 26.5907 44.3826 24.9365C44.4564 23.9936 45.2342 23.5307 46.279 23.8073ZM26.6849 28.3634C27.2016 28.5215 27.9567 28.9054 28.4053 29.2329C28.8254 29.5434 29.3024 29.9725 29.3819 30.1136C29.4273 30.2039 29.1661 30.6274 28.4791 31.5702L28.3769 31.7057L28.0135 31.3274C26.9745 30.2491 25.9468 29.9329 24.9816 30.379C23.8631 30.8984 23.2839 32.3888 23.6416 33.8116C23.8687 34.7036 24.5728 35.7819 25.3393 36.4029C25.6005 36.6175 25.6856 36.7135 25.6629 36.7981C25.6005 37.0917 25.0838 38.4467 25.0327 38.458C24.9418 38.4806 24.2719 37.9612 23.7609 37.4756C22.455 36.2279 21.6544 34.5399 21.6544 33.0099C21.6544 32.1178 21.9213 31.175 22.3982 30.3733C22.6934 29.8821 23.5735 28.9619 23.9936 28.7078C24.834 28.2053 25.7765 28.0868 26.6849 28.3634ZM33.7651 29.0579C37.6317 30.3451 43.758 35.4037 48.1867 40.9591C48.4252 41.2583 48.6239 41.5293 48.6239 41.5575C48.6239 41.6422 47.6246 42.1108 47.0284 42.3084C45.802 42.7149 44.6097 42.856 43.2697 42.7544C41.1462 42.5963 40.1413 42.1898 39.6587 41.2922C39.3634 40.7389 39.3123 40.3719 39.2555 38.4072C39.2158 36.9449 39.1874 36.5272 39.0852 36.0699C38.8808 35.1157 38.5401 34.4269 37.9326 33.7156C36.6438 32.2138 34.7417 31.2879 32.7318 31.1863L32.0277 31.1524L31.9255 30.8532C31.7836 30.4411 31.6814 29.7184 31.7268 29.4756C31.7665 29.2442 31.9482 28.9958 32.1242 28.9167C32.3513 28.8207 33.2882 28.8998 33.7651 29.0579ZM30.8467 31.4629C32.0788 35.144 36.7971 40.9591 42.1512 45.4079C44.9163 47.7057 47.5905 49.3655 49.5323 50.0035L50.2477 50.235L49.9979 50.4269C48.7999 51.3246 46.983 52.4312 45.4897 53.1708C42.7417 54.5314 40.3741 55.1863 37.9213 55.271C36.3542 55.3218 35.1732 55.1581 33.8105 54.7121C30.8467 53.7353 28.1044 51.319 26.6736 48.4284C25.8276 46.7233 25.4642 44.9619 25.5323 42.952C25.5891 41.3712 25.8219 40.1517 26.3954 38.4354C26.9234 36.849 27.5252 35.5335 28.445 33.9414C29.0469 32.8857 30.5345 30.6725 30.5969 30.7403C30.6026 30.7459 30.7161 31.0734 30.8467 31.4629ZM53.0582 31.9823C54.5401 32.7163 55.5167 34.314 55.9312 36.6852C56.0561 37.3966 56.0731 39.6605 55.9596 40.5526C55.8403 41.4954 55.5678 42.76 55.318 43.5335C54.6537 45.5547 53.7736 47.0564 52.4564 48.3832C51.8205 49.0268 51.758 49.072 51.5025 49.1058C50.8439 49.2018 49.8162 48.9026 48.3968 48.1969C47.8687 47.9315 47.4315 47.7001 47.4315 47.6775C47.4315 47.6549 47.7041 47.5533 48.0391 47.4516C48.8567 47.1976 49.6061 46.8419 50.3556 46.3451C50.9972 45.9216 51.9227 45.103 52.2122 44.7078C52.5529 44.2392 52.3258 43.7142 51.7751 43.7142C51.5252 43.7142 51.5025 43.7311 50.9915 44.2336C49.8219 45.4079 48.4365 46.1814 46.9376 46.5032C45.802 46.7516 45.9553 46.7798 45.132 46.1814C44.411 45.6619 42.895 44.4707 42.4635 44.0868L42.2364 43.8835L42.6622 43.9287C42.895 43.9513 43.599 43.9682 44.2236 43.9682C45.1718 43.9626 45.467 43.9456 46.0007 43.8384C47.7722 43.4883 49.4926 42.6528 50.5714 41.6309C51.1391 41.0889 51.5082 40.6034 51.8545 39.9315C52.4905 38.6951 52.7176 37.3684 52.5132 36.036C52.3939 35.2343 52.2463 34.8052 51.7353 33.789C51.3492 33.0268 51.2641 32.8123 51.247 32.5413C51.2186 32.1404 51.2754 32.0219 51.5877 31.8638C51.9681 31.6718 52.5132 31.7113 53.0582 31.9823ZM33.521 32.4848C35.213 32.7897 36.8765 33.964 37.5579 35.3303C37.9213 36.0586 38.0064 36.5949 38.0405 38.3507L38.0689 39.8468L37.5465 39.3105C36.4564 38.187 35.1675 36.5554 34.0547 34.8786C33.4983 34.0317 32.5557 32.4735 32.5557 32.3888C32.5557 32.355 33.0724 32.4058 33.521 32.4848Z" fill="black"/>
<path d="M45.1945 24.2477C44.9049 24.4171 44.7629 24.6881 44.7629 25.072C44.7629 26.139 45.8417 27.5504 47.1192 28.1433C47.4769 28.307 47.5678 28.3239 48.039 28.3296C48.516 28.3296 48.5727 28.3183 48.709 28.1884C48.9418 27.9739 49.0213 27.7763 49.0213 27.4093C49.0213 26.3874 48.0106 25.0325 46.7842 24.4284C46.347 24.2138 46.1994 24.1687 45.8417 24.1461C45.467 24.1235 45.3875 24.1348 45.1945 24.2477Z" fill="black"/>
<path d="M25.4017 28.6231C24.7828 28.6909 24.2037 28.9901 23.6302 29.5321C22.8921 30.2322 22.4322 30.9774 22.1881 31.8581C22.0461 32.3719 22.0405 33.6083 22.1824 34.1164C22.5515 35.4488 23.3577 36.6683 24.4876 37.5999L24.8566 37.8991L25.044 37.3797L25.2314 36.8603L24.8453 36.4876C23.4713 35.1778 22.8864 33.5857 23.2385 32.1178C23.4713 31.1581 24.005 30.4185 24.7147 30.0628C25.8048 29.5208 26.9063 29.7579 28.0192 30.7742L28.3428 31.0677L28.6437 30.633L28.9446 30.1983L28.6324 29.9217C27.9567 29.3176 27.0312 28.8264 26.2647 28.6683C25.89 28.5836 25.7878 28.5836 25.4017 28.6231Z" fill="black"/>
<path d="M32.1867 29.3966C32.1072 29.5152 32.0958 29.6168 32.1242 29.8991C32.1413 30.0967 32.1924 30.3677 32.2321 30.5088L32.3059 30.7572L32.8396 30.7911C34.6963 30.9097 36.5188 31.7283 37.8361 33.0437C39.2158 34.41 39.6473 35.6634 39.653 38.266C39.6586 40.5413 39.829 41.2018 40.533 41.6817C41.0838 42.06 41.8787 42.2576 43.2697 42.3592C44.8595 42.4778 46.3244 42.2406 47.6757 41.6309L48.0674 41.4559L47.8801 41.2188C46.7616 39.7904 45.5408 38.4354 43.917 36.8264C40.7034 33.6422 37.626 31.2879 35.0256 30.0233C33.907 29.4813 33.396 29.3119 32.7772 29.278C32.2946 29.2498 32.2832 29.2498 32.1867 29.3966Z" fill="black"/>
<path d="M30.1029 32.067C28.3087 34.6189 26.8382 37.7636 26.2874 40.2251C25.8502 42.1616 25.8048 44.036 26.1455 45.7184C26.8211 49.0381 29.4159 52.2562 32.6749 53.82C34.3499 54.6217 35.951 54.9435 37.9212 54.8758C39.7835 54.808 41.379 54.458 43.4003 53.6676C45.2002 52.9619 47.3918 51.7763 49.0156 50.6358C49.3165 50.4213 49.362 50.3705 49.2711 50.3423C48.7715 50.1672 48.1923 49.9132 47.5167 49.5631C42.2761 46.8758 35.1505 40.0049 31.8573 34.4721C31.4145 33.7269 30.8751 32.6711 30.6537 32.1122C30.5685 31.892 30.4833 31.6944 30.4549 31.6718C30.4322 31.6436 30.2732 31.8243 30.1029 32.067ZM36.2463 41.8567C37.66 42.218 38.6253 43.1609 39.0397 44.6005C39.1476 44.9675 39.1703 45.1708 39.1647 45.8313C39.1647 46.5032 39.1363 46.7064 39.0114 47.1863C38.5515 48.8913 37.2796 50.5286 35.7012 51.4375C34.7019 52.0134 33.4301 52.3352 32.3911 52.2787C31.6984 52.2392 31.2952 52.1319 30.6366 51.8101C28.814 50.9238 28.0873 48.7445 28.8424 46.4467C29.2342 45.2385 30.1086 44.0077 31.1306 43.206C32.7601 41.9301 34.6054 41.4446 36.2463 41.8567Z" fill="black"/>
<path d="M34.5373 42.1334C32.3968 42.3931 30.2903 44.0134 29.3989 46.091C28.7346 47.6493 28.8027 49.2527 29.5806 50.3931C29.9269 50.8956 30.2562 51.1722 30.8808 51.4827C31.5621 51.8158 32.0675 51.9231 32.8396 51.8836C35.5025 51.7424 37.9042 49.7269 38.6423 47.0169C38.7445 46.65 38.7672 46.4128 38.7672 45.7749C38.7616 45.0748 38.7445 44.9337 38.6139 44.5272C38.1427 43.1045 36.9333 42.2181 35.3379 42.1164C35.1051 42.0995 34.7417 42.1108 34.5373 42.1334ZM35.8489 43.4093C35.8829 43.4432 35.8659 43.5674 35.7864 43.7706C35.7183 43.94 35.6274 44.307 35.582 44.5893C35.4855 45.1821 35.3719 45.4644 35.0937 45.7749C34.7985 46.1136 34.401 46.3056 33.7878 46.4016C33.1008 46.5088 32.8056 46.6104 32.3911 46.8758C31.5451 47.4178 31.142 48.0783 30.9433 49.2414C30.8184 49.9527 30.7956 49.9866 30.6026 49.7382C29.9951 48.9478 30.0064 47.5363 30.631 46.3112C31.125 45.3345 32.181 44.2618 33.0951 43.8158C33.4188 43.6521 34.0036 43.4545 34.3783 43.3754C34.702 43.3133 35.7694 43.3303 35.8489 43.4093ZM37.2002 44.3747C37.8077 45.3402 37.6941 46.7403 36.8936 48.0727C36.5416 48.6598 35.6899 49.5293 35.0994 49.9132C34.2364 50.4721 33.2541 50.7601 32.4422 50.698C31.9085 50.6584 31.7949 50.6189 31.8517 50.4947C31.9937 50.1785 32.1015 49.7833 32.1526 49.3881C32.2321 48.8292 32.4252 48.4284 32.7602 48.1179C33.0895 47.8186 33.3961 47.6831 33.9241 47.6097C34.8325 47.4799 35.3095 47.2597 35.8829 46.6838C36.3939 46.1757 36.6154 45.7354 36.7573 44.928C36.9276 43.9795 36.939 43.9626 37.2002 44.3747Z" fill="black"/>
<path d="M34.2023 43.8327C33.3449 44.0529 32.6976 44.4368 32.0277 45.1143C31.4826 45.6619 31.2385 45.9894 30.9602 46.5653C30.6593 47.1863 30.5685 47.5815 30.5685 48.259L30.5742 48.8235L30.7275 48.3719C31.1817 47.0564 32.2321 46.2209 33.6742 46.0233C34.1966 45.9499 34.5827 45.7692 34.8211 45.4813C35.0312 45.2272 35.1334 44.9562 35.2186 44.4199C35.2526 44.1997 35.2981 43.9569 35.3151 43.8666L35.3492 43.7142L34.9915 43.7198C34.7927 43.7198 34.435 43.7706 34.2023 43.8327Z" fill="black"/>
<path d="M37.0752 45.3909C37.0525 45.5264 36.9333 45.837 36.8084 46.091C36.5302 46.6612 35.8999 47.3161 35.3549 47.5984C34.9744 47.796 34.2477 48.0049 33.9241 48.0049C33.4982 48.0106 32.9418 48.3775 32.7204 48.8066C32.6636 48.9252 32.5841 49.2075 32.5557 49.4389C32.5216 49.6648 32.4705 49.9414 32.4422 50.043C32.4081 50.1503 32.3854 50.2576 32.3854 50.2858C32.3854 50.3705 33.3052 50.2745 33.6913 50.1447C34.4407 49.9019 35.0085 49.5575 35.6274 48.9816C36.7232 47.9541 37.3421 46.5201 37.1661 45.4361L37.1206 45.1538L37.0752 45.3909Z" fill="black"/>
<path d="M51.7637 32.2082C51.5082 32.3324 51.6104 32.7615 52.076 33.5745C52.4109 34.1503 52.6721 34.8278 52.8425 35.5561C53.0014 36.2505 53.0128 37.5999 52.8595 38.2943C52.3598 40.5921 51.0029 42.2407 48.709 43.3529C47.3464 44.0078 46.0234 44.3239 44.4677 44.3747L43.4571 44.4086L44.0589 44.8829C44.3939 45.1426 44.9447 45.5603 45.2853 45.8031C45.9837 46.3056 46.0121 46.3112 46.6934 46.1701C48.181 45.8596 49.5323 45.1143 50.7019 43.957C51.3435 43.3303 51.5422 43.2343 51.9965 43.3303C52.5983 43.4601 52.9333 44.1207 52.6892 44.7022C52.587 44.9393 51.8545 45.7071 51.2924 46.1588C50.5146 46.7798 49.4471 47.3952 48.6806 47.6606L48.3684 47.7678L48.9361 48.0332C49.7481 48.4114 50.6054 48.6881 51.0994 48.722L51.5139 48.7558L51.9794 48.3098C53.8474 46.5088 55.0568 43.9852 55.494 40.9704C55.6473 39.9372 55.6984 38.2943 55.6132 37.4192C55.3634 34.9125 54.3868 33.0889 52.8765 32.338C52.462 32.1291 52.0305 32.0783 51.7637 32.2082Z" fill="black"/>
<path d="M33.538 33.3204C34.4918 34.9407 36.1554 37.199 37.3989 38.5709L37.6657 38.8701V38.3451C37.6657 37.6168 37.5692 36.5949 37.4613 36.1884C37.2513 35.3698 36.6664 34.5681 35.8432 33.9527C35.1391 33.422 34.2647 33.0212 33.5153 32.8857L33.2484 32.8349L33.538 33.3204Z" fill="black"/>
<path d="M7.84033 40.0388L7.63025 40.0727L7.95388 40.2421C8.41946 40.4848 9.06673 41.1059 9.31087 41.5575C9.32791 41.5858 10.4691 40.976 10.4691 40.9365C10.4691 40.9196 10.2931 40.7841 10.0717 40.6373C9.38468 40.18 8.45921 39.9315 7.84033 40.0388Z" fill="white"/>
<path d="M69.66 40.0445C69.2285 40.1122 68.638 40.355 68.2065 40.6429C67.9908 40.7841 67.8148 40.9196 67.8148 40.9365C67.8148 40.976 68.956 41.5858 68.973 41.5575C69.2172 41.1059 69.8588 40.4905 70.3414 40.2308C70.5628 40.1122 70.6423 40.0445 70.5628 40.0445C70.4947 40.0445 70.33 40.0332 70.1938 40.0219C70.0575 40.0049 69.819 40.0162 69.66 40.0445Z" fill="white"/>
<path d="M6.37544 41.2696C6.25052 41.7043 6.29027 42.3761 6.46628 42.8673C6.63094 43.3246 6.74449 43.5335 7.05109 43.9569L7.24414 44.2223L7.4826 43.7311C7.61887 43.4545 7.85734 43.0593 8.01631 42.8504C8.18097 42.6415 8.31156 42.4439 8.31156 42.41C8.31156 42.2914 8.02199 41.9132 7.72107 41.6422C7.49396 41.4333 7.2782 41.3091 6.94321 41.1792C6.69339 41.0833 6.47764 41.0042 6.46628 41.0042C6.4606 41.0042 6.42086 41.1228 6.37544 41.2696Z" fill="white"/>
<path d="M71.318 41.1849C71.0114 41.3034 70.7843 41.4389 70.5628 41.6422C70.2619 41.9132 69.9724 42.2914 69.9724 42.41C69.9724 42.4439 70.1029 42.6415 70.2676 42.8504C70.4266 43.0593 70.665 43.4545 70.8013 43.7311L71.0398 44.2223L71.2328 43.9569C71.7325 43.2625 71.9653 42.6528 71.9766 41.9922C71.9823 41.5744 71.8801 40.9986 71.7949 41.0099C71.7779 41.0099 71.5621 41.0889 71.318 41.1849Z" fill="white"/>
<path d="M11.2697 42.0487C10.6338 42.2294 10.083 42.5681 9.46983 43.1778C8.97019 43.669 8.86231 43.8102 8.6352 44.2788C8.49325 44.5723 8.34563 44.928 8.31724 45.0692C8.24911 45.3627 8.23208 46.1983 8.30021 46.1983C8.32292 46.1983 8.41377 46.0572 8.50461 45.8878C8.66927 45.5716 9.0951 45.0917 9.44712 44.832C9.77643 44.5836 10.2988 44.3522 10.8609 44.1941C11.4854 44.0191 11.6558 43.94 11.9908 43.669C12.303 43.4206 12.5813 43.0028 12.7686 42.5117L12.9106 42.1334L12.7573 42.0656C12.5074 41.964 11.6217 41.9527 11.2697 42.0487Z" fill="white"/>
<path d="M65.714 42.0035C65.6686 42.0204 65.5721 42.06 65.4983 42.0825L65.3734 42.1334L65.5153 42.5116C65.7027 43.0028 65.9809 43.4206 66.2932 43.669C66.6281 43.94 66.7985 44.019 67.423 44.1941C67.9851 44.3521 68.5075 44.5836 68.8368 44.832C69.1888 45.0917 69.6147 45.5716 69.7793 45.8878C69.8702 46.0572 69.961 46.1983 69.9894 46.1983C70.0518 46.1983 70.0348 45.3627 69.9667 45.0692C69.9383 44.928 69.7907 44.5723 69.6487 44.2787C69.4216 43.8101 69.3137 43.669 68.8141 43.1778C68.1895 42.5568 67.6388 42.218 66.9858 42.0487C66.6679 41.9696 65.89 41.9414 65.714 42.0035Z" fill="white"/>
<path d="M13.6487 43.6464C13.3591 44.2053 12.7743 44.7643 12.1668 45.0578C11.9056 45.1877 11.4911 45.3458 11.2413 45.4079C10.9972 45.47 10.7133 45.566 10.6168 45.6168C10.0263 45.916 9.60044 46.4015 9.36197 47.0621L9.22571 47.429L9.46418 47.4855C9.90704 47.5984 10.1114 47.6097 10.5146 47.5532C11.8432 47.3669 13.1377 46.3112 13.6828 44.9619C13.8474 44.5554 13.9439 43.8892 13.8872 43.5335L13.8474 43.2625L13.6487 43.6464Z" fill="white"/>
<path d="M64.3911 43.5561C64.2208 44.9957 65.4017 46.7177 66.9915 47.35C67.6331 47.6041 68.1895 47.6436 68.8198 47.4855L69.0582 47.4291L68.922 47.0621C68.6835 46.4015 68.2577 45.916 67.6672 45.6168C67.5707 45.566 67.2868 45.47 67.0426 45.4079C66.7928 45.3458 66.3783 45.1877 66.1171 45.0579C65.5153 44.7699 64.9305 44.211 64.6296 43.6408L64.4252 43.2512L64.3911 43.5561Z" fill="white"/>
<path d="M28.7459 64.9195C28.2633 65.0663 27.8261 65.6309 27.5934 66.4044C27.264 67.5166 27.8489 68.4425 28.8936 68.4425C29.2967 68.4425 29.5352 68.3409 29.8247 68.0529C30.3755 67.5053 30.6878 66.3705 30.4663 65.7269C30.2506 65.1171 29.3989 64.7163 28.7459 64.9195Z" fill="#BD0707"/>
</svg>
