<svg width="99" height="172" viewBox="0 0 99 172" fill="none" xmlns="http://www.w3.org/2000/svg">
<path d="M46.0808 156.461C47.7084 156.461 49.0279 155.082 49.0279 153.38C49.0279 151.678 47.7084 150.299 46.0808 150.299C44.4532 150.299 43.1338 151.678 43.1338 153.38C43.1338 155.082 44.4532 156.461 46.0808 156.461Z" fill="white"/>
<path d="M49.1617 168.785C50.7153 168.785 51.9748 167.406 51.9748 165.704C51.9748 164.002 50.7153 162.623 49.1617 162.623C47.6081 162.623 46.3486 164.002 46.3486 165.704C46.3486 167.406 47.6081 168.785 49.1617 168.785Z" fill="white"/>
<path d="M37.1064 168.785C38.808 168.785 40.1874 167.406 40.1874 165.704C40.1874 164.002 38.808 162.623 37.1064 162.623C35.4048 162.623 34.0254 164.002 34.0254 165.704C34.0254 167.406 35.4048 168.785 37.1064 168.785Z" fill="white"/>
<path d="M40.1868 16.3427C30.2459 18.3628 21.2489 23.5429 14.572 31.0908C7.89508 38.6386 3.90596 48.1384 3.21484 58.1371H40.1868V16.3427Z" fill="white"/>
<path d="M58.2714 156.461C59.973 156.461 61.3524 155.082 61.3524 153.38C61.3524 151.678 59.973 150.299 58.2714 150.299C56.5698 150.299 55.1904 151.678 55.1904 153.38C55.1904 155.082 56.5698 156.461 58.2714 156.461Z" fill="white"/>
<path d="M73.5419 107.701C75.2435 107.701 76.6229 106.322 76.6229 104.62C76.6229 102.918 75.2435 101.539 73.5419 101.539C71.8403 101.539 70.4609 102.918 70.4609 104.62C70.4609 106.322 71.8403 107.701 73.5419 107.701Z" fill="white"/>
<path d="M52.1083 122.972C53.8099 122.972 55.1893 121.593 55.1893 119.891C55.1893 118.189 53.8099 116.81 52.1083 116.81C50.4068 116.81 49.0273 118.189 49.0273 119.891C49.0273 121.593 50.4068 122.972 52.1083 122.972Z" fill="white"/>
<path d="M64.4335 144.673C66.1351 144.673 67.5145 143.294 67.5145 141.592C67.5145 139.89 66.1351 138.511 64.4335 138.511C62.7319 138.511 61.3525 139.89 61.3525 141.592C61.3525 143.294 62.7319 144.673 64.4335 144.673Z" fill="white"/>
<path d="M30.9433 138.511C32.6449 138.511 34.0243 137.132 34.0243 135.43C34.0243 133.728 32.6449 132.349 30.9433 132.349C29.2417 132.349 27.8623 133.728 27.8623 135.43C27.8623 137.132 29.2417 138.511 30.9433 138.511Z" fill="white"/>
<path d="M58.1377 16.3427V58.1371H95.1097C94.4185 48.1384 90.4294 38.6386 83.7525 31.0908C77.0756 23.5429 68.0786 18.3628 58.1377 16.3427Z" fill="white"/>
<path d="M61.2187 168.785C62.9203 168.785 64.2997 167.406 64.2997 165.704C64.2997 164.002 62.9203 162.623 61.2187 162.623C59.5171 162.623 58.1377 164.002 58.1377 165.704C58.1377 167.406 59.5171 168.785 61.2187 168.785Z" fill="white"/>
<path d="M21.0645 172H30.0178C28.8298 170.673 28.0509 169.03 27.7753 167.269C27.4997 165.509 27.7392 163.706 28.4648 162.078C29.1904 160.451 30.3711 159.069 31.8641 158.1C33.3571 157.131 35.0983 156.615 36.8774 156.617C37.0567 156.617 37.2344 156.623 37.4114 156.633C36.7235 154.701 36.6982 152.594 37.3396 150.645C37.981 148.697 39.2525 147.018 40.9529 145.875C42.6533 144.732 44.6857 144.189 46.7286 144.332C48.7715 144.476 50.7082 145.298 52.2327 146.668C53.2991 145.709 54.5741 145.013 55.9563 144.635C55.2679 142.897 55.1226 140.991 55.5396 139.168C55.9566 137.346 56.9163 135.693 58.2915 134.429C59.6668 133.165 61.3929 132.35 63.2411 132.09C65.0894 131.831 66.9728 132.14 68.6419 132.976C70.3111 133.813 71.6872 135.137 72.5882 136.775C73.4892 138.412 73.8726 140.285 73.6876 142.146C73.5026 144.006 72.7579 145.767 71.5521 147.194C70.3464 148.621 68.7364 149.648 66.9353 150.138C67.4437 151.416 67.6593 152.792 67.5663 154.165C67.4733 155.537 67.074 156.872 66.3979 158.069C67.525 158.787 68.4824 159.743 69.2036 160.869C69.9247 161.996 70.3923 163.266 70.5739 164.592C70.7554 165.918 70.6465 167.267 70.2548 168.546C69.863 169.826 69.1978 171.004 68.3054 172H77.2587L92.6976 76.623H5.62598L21.0645 172ZM73.73 95.0831C75.5522 95.0831 77.3335 95.6244 78.8486 96.6386C80.3637 97.6529 81.5446 99.0944 82.2419 100.781C82.9392 102.468 83.1217 104.323 82.7662 106.114C82.4107 107.904 81.5332 109.549 80.2447 110.84C78.9562 112.131 77.3146 113.01 75.5274 113.366C73.7402 113.722 71.8878 113.539 70.2043 112.841C68.5208 112.142 67.0819 110.959 66.0696 109.441C65.0572 107.923 64.5169 106.139 64.5169 104.313C64.5197 101.866 65.4913 99.52 67.2185 97.7897C68.9457 96.0593 71.2874 95.086 73.73 95.0831V95.0831ZM52.2327 110.466C54.0549 110.466 55.8361 111.008 57.3512 112.022C58.8663 113.036 60.0472 114.478 60.7445 116.164C61.4418 117.851 61.6243 119.707 61.2688 121.497C60.9133 123.288 60.0358 124.932 58.7473 126.223C57.4589 127.514 55.8172 128.393 54.0301 128.749C52.2429 129.105 50.3904 128.923 48.7069 128.224C47.0235 127.525 45.5846 126.342 44.5722 124.824C43.5598 123.307 43.0195 121.522 43.0195 119.697C43.0223 117.249 43.9939 114.903 45.7211 113.173C47.4483 111.443 49.7901 110.469 52.2327 110.466V110.466ZM30.7353 125.85C32.5575 125.85 34.3387 126.391 35.8538 127.405C37.3689 128.42 38.5498 129.861 39.2471 131.548C39.9445 133.234 40.1269 135.09 39.7714 136.881C39.4159 138.671 38.5385 140.316 37.25 141.606C35.9615 142.897 34.3199 143.776 32.5327 144.133C30.7455 144.489 28.893 144.306 27.2096 143.607C25.5261 142.909 24.0872 141.726 23.0748 140.208C22.0625 138.69 21.5221 136.905 21.5221 135.08C21.525 132.633 22.4966 130.287 24.2237 128.556C25.9509 126.826 28.2927 125.853 30.7353 125.85V125.85Z" fill="white"/>
<path d="M0 64.2991H98.324V70.4611H0V64.2991Z" fill="white"/>
<path d="M46.3486 0H51.9748V58.1371H46.3486V0Z" fill="white"/>
</svg>
