<svg width="1672" height="1043" viewBox="0 0 1672 1043" fill="none" xmlns="http://www.w3.org/2000/svg">
<rect width="1672" height="1043" fill="white"/>
<path d="M1486.5 270.964C1509 122.571 1323 35.8072 1323 0H1672V450C1602.67 439.786 1468.5 389.679 1486.5 270.964Z" fill="#BD0707"/>
<path d="M185.5 826.831C163 945.216 349 1014.43 349 1043H0V684C69.3333 692.149 203.5 732.123 185.5 826.831Z" fill="#BD0707"/>
<path d="M660.5 268.5C660.5 257.731 651.769 249 641 249C630.231 249 621.5 257.731 621.5 268.5V385.5H660.5V268.5Z" fill="#BD0707"/>
<path d="M621.5 463.5H660.5V561H621.5V463.5Z" fill="#BD0707"/>
<path d="M865.174 452.503L898.77 424.5L865.174 396.497C864.545 401.363 860.404 405 855.5 405H582.5V444H855.5C860.404 444 864.545 447.637 865.174 452.503V452.503Z" fill="#BD0707"/>
<path d="M992 580.5H826.25V590.25C826.25 594.035 824.06 597.482 820.632 599.086C817.205 600.69 813.158 600.167 810.249 597.739L751.749 548.989C749.531 547.137 748.245 544.395 748.245 541.5C748.245 538.605 749.531 535.863 751.749 534.011L810.249 485.261C813.158 482.833 817.205 482.31 820.632 483.914C824.06 485.518 826.25 488.965 826.25 492.75V502.5H992V278.25C992 262.097 978.903 249 962.75 249H674.597C678.101 254.903 679.967 261.635 680 268.5V385.5H845.75V375.75C845.75 371.965 847.94 368.518 851.368 366.914C854.796 365.31 858.842 365.833 861.751 368.261L920.251 417.011C922.469 418.863 923.755 421.605 923.755 424.5C923.755 427.395 922.469 430.137 920.251 431.989L861.751 480.739C858.842 483.167 854.796 483.69 851.368 482.086C847.94 480.482 845.75 477.035 845.75 473.25V463.5H680V775.5C680 786.269 688.731 795 699.5 795C710.269 795 719 786.269 719 775.5V746.25C719 740.866 723.366 736.5 728.75 736.5H992V580.5ZM816.5 346.5H719V327H816.5V346.5ZM816.5 307.5H719V288H816.5V307.5ZM953 717H758V697.5H953V717ZM953 678H758V658.5H953V678ZM953 639H894.5V619.5H953V639Z" fill="#BD0707"/>
<path d="M816.5 522C815.243 521.995 814 521.743 812.844 521.257C812.487 521.072 812.144 520.862 811.811 520.634C811.111 520.272 810.454 519.829 809.859 519.31C809.544 518.958 809.254 518.587 808.992 518.196C808.516 517.649 808.111 517.049 807.773 516.401C807.583 515.944 807.435 515.468 807.326 514.978C807.121 514.502 806.959 514.007 806.845 513.497L773.229 541.5L806.826 569.503C806.94 568.993 807.102 568.498 807.307 568.022C807.412 567.532 807.564 567.056 807.754 566.599C808.088 565.951 808.497 565.351 808.973 564.804C809.235 564.413 809.525 564.042 809.84 563.69C810.435 563.171 811.092 562.728 811.792 562.366C812.125 562.138 812.468 561.928 812.825 561.743C813.986 561.252 815.238 561 816.5 561H1089.5V522H816.5Z" fill="#BD0707"/>
<path d="M1021.25 756H738.5V775.5C738.51 782.351 736.705 789.078 733.263 795H1021.25C1032.02 795 1040.75 786.269 1040.75 775.5C1040.75 764.731 1032.02 756 1021.25 756Z" fill="#BD0707"/>
</svg>
