<svg width="20" height="20" viewBox="0 0 20 20" fill="none" xmlns="http://www.w3.org/2000/svg">
<path d="M10 17.2322C10.3236 17.2322 10.5859 16.9698 10.5859 16.6462V8.77869C10.5859 8.45509 10.3236 8.19275 10 8.19275C9.67641 8.19275 9.41406 8.45509 9.41406 8.77869V16.6462C9.41406 16.9698 9.67641 17.2322 10 17.2322Z" fill="#BD0707"/>
<path d="M6.77385 16.7012C6.80432 17.024 7.09084 17.26 7.41229 17.2295C7.73447 17.1991 7.97096 16.9132 7.94053 16.591L7.19764 8.72351C7.16721 8.40136 6.8819 8.1648 6.5592 8.19527C6.23701 8.2257 6.00053 8.51152 6.03096 8.83371L6.77385 16.7012Z" fill="#BD0707"/>
<path d="M12.588 17.2295C12.9098 17.2599 13.196 17.0237 13.2264 16.7013L13.9693 8.83373C13.9998 8.51154 13.7632 8.22572 13.4411 8.19529C13.1184 8.16467 12.8331 8.40139 12.8027 8.72354L12.0598 16.5911C12.0293 16.9132 12.2659 17.1991 12.588 17.2295Z" fill="#BD0707"/>
<path d="M2.25195 6.59668H2.60223L4.29941 19.4905C4.33777 19.7821 4.58629 20 4.88035 20H15.12C15.4141 20 15.6625 19.7821 15.7009 19.4905L17.3981 6.59668H17.7484C18.072 6.59668 18.3343 6.33434 18.3343 6.01074V3.44711C18.3343 3.12352 18.072 2.86117 17.7484 2.86117H12.7344V2.63027C12.7344 1.17996 11.5545 0 10.1042 0H9.89617C8.44586 0 7.2659 1.17996 7.2659 2.63027V2.86117H2.25195C1.92836 2.86117 1.66602 3.12352 1.66602 3.44711V6.01074C1.66602 6.33434 1.92832 6.59668 2.25195 6.59668ZM14.6061 18.8281H5.39418L3.78422 6.59668H16.2161L14.6061 18.8281ZM8.43773 2.63027C8.43773 1.82613 9.09199 1.17188 9.89613 1.17188H10.1041C10.9083 1.17188 11.5625 1.82613 11.5625 2.63027V2.86117H8.43773V2.63027ZM2.83789 4.03305H17.1625V5.4248C17.0372 5.4248 2.99414 5.4248 2.83789 5.4248V4.03305Z" fill="#BD0707"/>
</svg>
