<svg width="44" height="50" viewBox="0 0 44 50" fill="none" xmlns="http://www.w3.org/2000/svg">
<path d="M19.3958 17.0833C19.3958 23.1143 24.3024 28.0208 30.3333 28.0208C36.3643 28.0208 41.2708 23.1143 41.2708 17.0833C41.2708 11.0524 36.3643 6.14583 30.3333 6.14583C24.3024 6.14583 19.3958 11.0524 19.3958 17.0833ZM39.6042 17.0833C39.6042 22.1953 35.4453 26.3542 30.3333 26.3542C25.2214 26.3542 21.0625 22.1953 21.0625 17.0833C21.0625 11.9714 25.2214 7.8125 30.3333 7.8125C35.4453 7.8125 39.6042 11.9714 39.6042 17.0833ZM30.3333 11.4583C30.7935 11.4583 31.1667 11.8315 31.1667 12.2917V12.6433C32.1366 12.9874 32.8333 13.9136 32.8333 15C32.8333 15.4602 32.4602 15.8333 32 15.8333C31.5398 15.8333 31.1667 15.4602 31.1667 15C31.1667 14.5405 30.7928 14.1667 30.3333 14.1667C29.8739 14.1667 29.5 14.5405 29.5 15V15.3372C29.5 15.7036 29.735 16.0232 30.0848 16.1326L31.079 16.4432C32.1283 16.7712 32.8333 17.7302 32.8333 18.8295V19.1667C32.8333 20.3666 31.9834 21.3715 30.8542 21.6118V21.875C30.8542 22.3352 30.481 22.7083 30.0208 22.7083C29.5606 22.7083 29.1875 22.3352 29.1875 21.875V21.3875C28.384 20.9713 27.8333 20.1323 27.8333 19.1667C27.8333 18.7065 28.2065 18.3333 28.6667 18.3333C29.1269 18.3333 29.5 18.7065 29.5 19.1667C29.5 19.6261 29.8739 20 30.3333 20C30.7928 20 31.1667 19.6261 31.1667 19.1667V18.8295C31.1667 18.463 30.9317 18.1434 30.5819 18.0341L29.5877 17.7234C28.5383 17.3954 27.8333 16.4365 27.8333 15.3372V15C27.8333 13.9136 28.5301 12.9874 29.5 12.6433V12.2917C29.5 11.8315 29.8731 11.4583 30.3333 11.4583ZM43.875 33.5417V44.1667C43.875 47.3832 41.2581 50 38.0417 50H5.95833C2.74188 50 0.125 47.3832 0.125 44.1667V3.33333C0.125 1.49531 1.62031 0 3.45833 0H30.5417C32.3797 0 33.875 1.49531 33.875 3.33333C33.875 3.79354 33.5019 4.16667 33.0417 4.16667C32.5815 4.16667 32.2083 3.79354 32.2083 3.33333C32.2083 2.41438 31.4606 1.66667 30.5417 1.66667H3.45833C2.53938 1.66667 1.79167 2.41438 1.79167 3.33333V44.1667C1.79167 46.4642 3.66083 48.3333 5.95833 48.3333H33.9648C32.882 47.2738 32.2083 45.7977 32.2083 44.1667V31.1458C32.2083 30.6856 32.5815 30.3125 33.0417 30.3125C33.5019 30.3125 33.875 30.6856 33.875 31.1458V44.1667C33.875 46.4642 35.7442 48.3333 38.0417 48.3333C40.3392 48.3333 42.2083 46.4642 42.2083 44.1667V33.5417C42.2083 32.6227 41.4606 31.875 40.5417 31.875H37C36.5398 31.875 36.1667 31.5019 36.1667 31.0417C36.1667 30.5815 36.5398 30.2083 37 30.2083H40.5417C42.3797 30.2083 43.875 31.7036 43.875 33.5417ZM7.41667 22.3958C7.41667 21.9356 7.78979 21.5625 8.25 21.5625H15.3333C15.7935 21.5625 16.1667 21.9356 16.1667 22.3958C16.1667 22.856 15.7935 23.2292 15.3333 23.2292H8.25C7.78979 23.2292 7.41667 22.856 7.41667 22.3958ZM7.41667 13.0208C7.41667 12.5606 7.78979 12.1875 8.25 12.1875H15.3333C15.7935 12.1875 16.1667 12.5606 16.1667 13.0208C16.1667 13.481 15.7935 13.8542 15.3333 13.8542H8.25C7.78979 13.8542 7.41667 13.481 7.41667 13.0208ZM26.5833 31.7708C26.5833 32.231 26.2102 32.6042 25.75 32.6042H8.25C7.78979 32.6042 7.41667 32.231 7.41667 31.7708C7.41667 31.3106 7.78979 30.9375 8.25 30.9375H25.75C26.2102 30.9375 26.5833 31.3106 26.5833 31.7708ZM26.5833 40.5208C26.5833 40.981 26.2102 41.3542 25.75 41.3542H8.25C7.78979 41.3542 7.41667 40.981 7.41667 40.5208C7.41667 40.0606 7.78979 39.6875 8.25 39.6875H25.75C26.2102 39.6875 26.5833 40.0606 26.5833 40.5208Z" fill="#974A4A"/>
</svg>
