<svg width="162" height="162" viewBox="0 0 162 162" fill="none" xmlns="http://www.w3.org/2000/svg">
<g clip-path="url(#clip0)">
<path d="M79.8455 78.0359C90.5662 78.0359 99.8495 74.1908 107.435 66.6045C115.02 59.0194 118.865 49.7386 118.865 39.0167C118.865 28.2985 115.02 19.0164 107.433 11.4289C99.8471 3.84506 90.565 0 79.8455 0C69.1235 0 59.8427 3.84506 52.2576 11.4301C44.6725 19.0152 40.8262 28.2972 40.8262 39.0167C40.8262 49.7386 44.6725 59.0207 52.2588 66.6057C59.8452 74.1896 69.1272 78.0359 79.8455 78.0359Z" fill="white"/>
<path d="M148.119 124.57C147.9 121.413 147.458 117.97 146.806 114.333C146.149 110.67 145.302 107.207 144.289 104.042C143.242 100.77 141.818 97.5392 140.058 94.4432C138.231 91.2297 136.086 88.4315 133.678 86.1289C131.16 83.72 128.078 81.7833 124.513 80.3706C120.961 78.9653 117.025 78.2534 112.814 78.2534C111.16 78.2534 109.561 78.9319 106.472 80.9428C104.571 82.1825 102.348 83.6162 99.8657 85.2019C97.7436 86.5541 94.8687 87.8209 91.3178 88.9679C87.8534 90.0889 84.3359 90.6574 80.864 90.6574C77.3922 90.6574 73.8759 90.0889 70.4078 88.9679C66.8606 87.8222 63.9857 86.5553 61.8661 85.2032C59.4077 83.6323 57.183 82.1985 55.2537 80.9416C52.1687 78.9307 50.5681 78.2521 48.9144 78.2521C44.7023 78.2521 40.767 78.9653 37.216 80.3718C33.654 81.782 30.5703 83.7188 28.0502 86.1301C25.6437 88.434 23.4969 91.2309 21.6726 94.4432C19.9138 97.5392 18.49 100.769 17.4419 104.043C16.4296 107.208 15.583 110.67 14.9255 114.333C14.2741 117.965 13.8316 121.409 13.6129 124.573C13.3978 127.673 13.2891 130.89 13.2891 134.14C13.2891 142.596 15.9773 149.442 21.2783 154.491C26.5139 159.473 33.4414 162.001 41.8657 162.001H119.87C128.294 162.001 135.219 159.474 140.456 154.491C145.758 149.446 148.446 142.599 148.446 134.138C148.445 130.874 148.335 127.655 148.119 124.57Z" fill="white"/>
</g>
<defs>
<clipPath id="clip0">
<rect width="162" height="162" fill="white"/>
</clipPath>
</defs>
</svg>
